<?xml version="1.0" encoding="us-ascii" standalone="no"?><svg xmlns="http://www.w3.org/2000/svg" xmlns:xlink="http://www.w3.org/1999/xlink" contentStyleType="text/css" height="790px" preserveAspectRatio="none" style="width:1664px;height:790px;background:#0B58A8;" version="1.1" viewBox="0 0 1664 790" width="1664px" zoomAndPan="magnify"><defs/><g><rect fill="#0B58A8" height="790" style="stroke:none;stroke-width:1.0;" width="1664" x="0" y="0"/><text fill="#FFFFFF" font-family="Verdana" font-size="24" font-weight="bold" lengthAdjust="spacing" textLength="264" x="695.75" y="37.2773">COMERS OVERVIEW</text><text fill="#FFFFFF" font-family="Verdana" font-size="12" font-style="italic" font-weight="bold" lengthAdjust="spacing" textLength="96" x="779.75" y="54.0762">infrastructure</text><!--cluster COMERS OVERVIEW--><g id="cluster_COMERS OVERVIEW"><path d="M608.5,390.4063 L763.5,390.4063 A3.75,3.75 0 0 1 766,392.9063 L773,412.7031 L1041.5,412.7031 A2.5,2.5 0 0 1 1044,415.2031 L1044,678.9063 A2.5,2.5 0 0 1 1041.5,681.4063 L608.5,681.4063 A2.5,2.5 0 0 1 606,678.9063 L606,392.9063 A2.5,2.5 0 0 1 608.5,390.4063 " fill="#0B58A8" style="stroke:#FFFFFF;stroke-width:1.0;"/><line style="stroke:#FFFFFF;stroke-width:1.0;" x1="606" x2="773" y1="412.7031" y2="412.7031"/><text fill="#FFFFFF" font-family="Verdana" font-size="14" font-weight="bold" lengthAdjust="spacing" textLength="154" x="610" y="405.4014">COMERS OVERVIEW</text></g><!--entity BOOKINGS--><g id="elem_BOOKINGS"><rect fill="#0B58A8" height="88.763" rx="2.5" ry="2.5" style="stroke:#FFFFFF;stroke-width:1.0;" width="137" x="890.5" y="425.4063"/><path d="M943.8333,435.4063 C941.92,435.4063 940.3333,436.9929 940.3333,438.9063 L940.3333,464.5729 C940.3333,466.4863 941.92,468.0729 943.8333,468.0729 L974.1667,468.0729 C976.08,468.0729 977.6667,466.4863 977.6667,464.5729 L977.6667,438.9063 C977.6667,436.9929 976.08,435.4063 974.1667,435.4063 L943.8333,435.4063 M945,440.0729 L949.6667,440.0729 L949.6667,444.7396 L945,444.7396 L945,440.0729 M954.3333,440.0729 L973,440.0729 L973,444.7396 L954.3333,444.7396 L954.3333,440.0729 M945,449.4063 L949.6667,449.4063 L949.6667,454.0729 L945,454.0729 L945,449.4063 M954.3333,449.4063 L973,449.4063 L973,454.0729 L954.3333,454.0729 L954.3333,449.4063 M945,458.7396 L949.6667,458.7396 L949.6667,463.4063 L945,463.4063 L945,458.7396 M954.3333,458.7396 L973,458.7396 L973,463.4063 L954.3333,463.4063 L954.3333,458.7396 " fill="#FFFFFF" style="stroke:;stroke-width:0.0;stroke-dasharray:;"/><text fill="#FFFFFF" font-family="Verdana" font-size="15" font-weight="bold" lengthAdjust="spacing" textLength="89" x="914.5" y="486.6629">BOOKINGS</text><text fill="#FFFFFF" font-family="Verdana" font-size="12" lengthAdjust="spacing" textLength="20" x="900.5" y="501.3392">List</text><text fill="#FFFFFF" font-family="Verdana" font-size="12" lengthAdjust="spacing" textLength="4" x="920.5" y="501.3392">&#160;</text><text fill="#FFFFFF" font-family="Verdana" font-size="12" lengthAdjust="spacing" textLength="12" x="924.5" y="501.3392">of</text><text fill="#FFFFFF" font-family="Verdana" font-size="12" lengthAdjust="spacing" textLength="4" x="936.5" y="501.3392">&#160;</text><text fill="#FFFFFF" font-family="Verdana" font-size="12" font-weight="bold" lengthAdjust="spacing" textLength="17" x="940.5" y="501.3392">all</text><text fill="#FFFFFF" font-family="Verdana" font-size="12" lengthAdjust="spacing" textLength="4" x="957.5" y="501.3392">&#160;</text><text fill="#FFFFFF" font-family="Verdana" font-size="12" lengthAdjust="spacing" textLength="56" x="961.5" y="501.3392">bookings</text></g><!--entity EVENTS--><g id="elem_EVENTS"><rect fill="#0B58A8" height="88.763" rx="2.5" ry="2.5" style="stroke:#FFFFFF;stroke-width:1.0;" width="95" x="722.5" y="576.4063"/><path d="M754.8333,586.4063 C752.92,586.4063 751.3333,587.9929 751.3333,589.9063 L751.3333,615.5729 C751.3333,617.4863 752.92,619.0729 754.8333,619.0729 L785.1667,619.0729 C787.08,619.0729 788.6667,617.4863 788.6667,615.5729 L788.6667,589.9063 C788.6667,587.9929 787.08,586.4063 785.1667,586.4063 L754.8333,586.4063 M756,591.0729 L760.6667,591.0729 L760.6667,595.7396 L756,595.7396 L756,591.0729 M765.3333,591.0729 L784,591.0729 L784,595.7396 L765.3333,595.7396 L765.3333,591.0729 M756,600.4063 L760.6667,600.4063 L760.6667,605.0729 L756,605.0729 L756,600.4063 M765.3333,600.4063 L784,600.4063 L784,605.0729 L765.3333,605.0729 L765.3333,600.4063 M756,609.7396 L760.6667,609.7396 L760.6667,614.4063 L756,614.4063 L756,609.7396 M765.3333,609.7396 L784,609.7396 L784,614.4063 L765.3333,614.4063 L765.3333,609.7396 " fill="#FFFFFF" style="stroke:;stroke-width:0.0;stroke-dasharray:;"/><text fill="#FFFFFF" font-family="Verdana" font-size="15" font-weight="bold" lengthAdjust="spacing" textLength="67" x="736.5" y="637.6629">EVENTS</text><text fill="#FFFFFF" font-family="Verdana" font-size="12" lengthAdjust="spacing" textLength="33" x="732.5" y="652.3392">Sales</text><text fill="#FFFFFF" font-family="Verdana" font-size="12" lengthAdjust="spacing" textLength="4" x="765.5" y="652.3392">&#160;</text><text fill="#FFFFFF" font-family="Verdana" font-size="12" lengthAdjust="spacing" textLength="38" x="769.5" y="652.3392">report</text></g><!--entity EMAILS--><g id="elem_EMAILS"><rect fill="#0B58A8" height="88.763" rx="2.5" ry="2.5" style="stroke:#FFFFFF;stroke-width:1.0;" width="175" x="852.5" y="576.4063"/><path d="M924.8333,586.4063 C922.92,586.4063 921.3333,587.9929 921.3333,589.9063 L921.3333,615.5729 C921.3333,617.4863 922.92,619.0729 924.8333,619.0729 L955.1667,619.0729 C957.08,619.0729 958.6667,617.4863 958.6667,615.5729 L958.6667,589.9063 C958.6667,587.9929 957.08,586.4063 955.1667,586.4063 L924.8333,586.4063 M926,591.0729 L930.6667,591.0729 L930.6667,595.7396 L926,595.7396 L926,591.0729 M935.3333,591.0729 L954,591.0729 L954,595.7396 L935.3333,595.7396 L935.3333,591.0729 M926,600.4063 L930.6667,600.4063 L930.6667,605.0729 L926,605.0729 L926,600.4063 M935.3333,600.4063 L954,600.4063 L954,605.0729 L935.3333,605.0729 L935.3333,600.4063 M926,609.7396 L930.6667,609.7396 L930.6667,614.4063 L926,614.4063 L926,609.7396 M935.3333,609.7396 L954,609.7396 L954,614.4063 L935.3333,614.4063 L935.3333,609.7396 " fill="#FFFFFF" style="stroke:;stroke-width:0.0;stroke-dasharray:;"/><text fill="#FFFFFF" font-family="Verdana" font-size="15" font-weight="bold" lengthAdjust="spacing" textLength="62" x="909" y="637.6629">EMAILS</text><text fill="#FFFFFF" font-family="Verdana" font-size="12" lengthAdjust="spacing" textLength="32" x="862.5" y="652.3392">Used</text><text fill="#FFFFFF" font-family="Verdana" font-size="12" lengthAdjust="spacing" textLength="4" x="894.5" y="652.3392">&#160;</text><text fill="#FFFFFF" font-family="Verdana" font-size="12" lengthAdjust="spacing" textLength="17" x="898.5" y="652.3392">for</text><text fill="#FFFFFF" font-family="Verdana" font-size="12" lengthAdjust="spacing" textLength="4" x="915.5" y="652.3392">&#160;</text><text fill="#FFFFFF" font-family="Verdana" font-size="12" lengthAdjust="spacing" textLength="55" x="919.5" y="652.3392">welcome</text><text fill="#FFFFFF" font-family="Verdana" font-size="12" lengthAdjust="spacing" textLength="4" x="974.5" y="652.3392">&#160;</text><text fill="#FFFFFF" font-family="Verdana" font-size="12" lengthAdjust="spacing" textLength="39" x="978.5" y="652.3392">emails</text></g><!--entity PAYMENTS--><g id="elem_PAYMENTS"><rect fill="#0B58A8" height="88.763" rx="2.5" ry="2.5" style="stroke:#FFFFFF;stroke-width:1.0;" width="180" x="675" y="425.4063"/><path d="M749.8333,435.4063 C747.92,435.4063 746.3333,436.9929 746.3333,438.9063 L746.3333,464.5729 C746.3333,466.4863 747.92,468.0729 749.8333,468.0729 L780.1667,468.0729 C782.08,468.0729 783.6667,466.4863 783.6667,464.5729 L783.6667,438.9063 C783.6667,436.9929 782.08,435.4063 780.1667,435.4063 L749.8333,435.4063 M751,440.0729 L755.6667,440.0729 L755.6667,444.7396 L751,444.7396 L751,440.0729 M760.3333,440.0729 L779,440.0729 L779,444.7396 L760.3333,444.7396 L760.3333,440.0729 M751,449.4063 L755.6667,449.4063 L755.6667,454.0729 L751,454.0729 L751,449.4063 M760.3333,449.4063 L779,449.4063 L779,454.0729 L760.3333,454.0729 L760.3333,449.4063 M751,458.7396 L755.6667,458.7396 L755.6667,463.4063 L751,463.4063 L751,458.7396 M760.3333,458.7396 L779,458.7396 L779,463.4063 L760.3333,463.4063 L760.3333,458.7396 " fill="#FFFFFF" style="stroke:;stroke-width:0.0;stroke-dasharray:;"/><text fill="#FFFFFF" font-family="Verdana" font-size="15" font-weight="bold" lengthAdjust="spacing" textLength="93" x="718.5" y="486.6629">PAYMENTS</text><text fill="#FFFFFF" font-family="Verdana" font-size="12" lengthAdjust="spacing" textLength="83" x="685" y="501.3392">SwedbankPay</text><text fill="#FFFFFF" font-family="Verdana" font-size="12" lengthAdjust="spacing" textLength="4" x="768" y="501.3392">&#160;</text><text fill="#FFFFFF" font-family="Verdana" font-size="12" lengthAdjust="spacing" textLength="73" x="772" y="501.3392">transactions</text></g><!--entity LINK--><g id="elem_LINK"><ellipse cx="631" cy="469.9063" fill="#0B58A8" rx="8" ry="8" style="stroke:#FFFFFF;stroke-width:1.0;"/></g><!--entity SETUP--><g id="elem_SETUP"><rect fill="#0B58A8" height="91.0911" rx="2.5" ry="2.5" style="stroke:#FFFFFF;stroke-width:1.0;" width="140" x="378" y="424.4063"/><path d="M432.8333,434.4063 C430.92,434.4063 429.3333,435.9929 429.3333,437.9063 L429.3333,463.5729 C429.3333,465.4863 430.92,467.0729 432.8333,467.0729 L463.1667,467.0729 C465.08,467.0729 466.6667,465.4863 466.6667,463.5729 L466.6667,437.9063 C466.6667,435.9929 465.08,434.4063 463.1667,434.4063 L432.8333,434.4063 M434,439.0729 L438.6667,439.0729 L438.6667,443.7396 L434,443.7396 L434,439.0729 M443.3333,439.0729 L462,439.0729 L462,443.7396 L443.3333,443.7396 L443.3333,439.0729 M434,448.4063 L438.6667,448.4063 L438.6667,453.0729 L434,453.0729 L434,448.4063 M443.3333,448.4063 L462,448.4063 L462,453.0729 L443.3333,453.0729 L443.3333,448.4063 M434,457.7396 L438.6667,457.7396 L438.6667,462.4063 L434,462.4063 L434,457.7396 M443.3333,457.7396 L462,457.7396 L462,462.4063 L443.3333,462.4063 L443.3333,457.7396 " fill="#FFFFFF" style="stroke:;stroke-width:0.0;stroke-dasharray:;"/><text fill="#FFFFFF" font-family="Verdana" font-size="15" font-weight="bold" lengthAdjust="spacing" textLength="120" x="388" y="485.6629">EVENT_SETUP</text><text fill="#FFFFFF" font-family="Verdana" font-size="14" lengthAdjust="spacing" textLength="4" x="446" y="502.1956">&#160;</text></g><!--entity COMERS--><g id="elem_COMERS"><rect fill="#0B58A8" height="57.25" rx="2.5" ry="2.5" style="stroke:#FFFFFF;stroke-width:1.0;" width="135" x="511.5" y="249.4063"/><text fill="#FFFFFF" font-family="Verdana" font-size="18" font-weight="bold" lengthAdjust="spacing" textLength="77" x="540.5" y="276.1143">Comers</text><text fill="#FFFFFF" font-family="Verdana" font-size="14" lengthAdjust="spacing" textLength="59" x="521.5" y="293.3545">Booking</text><text fill="#FFFFFF" font-family="Verdana" font-size="14" lengthAdjust="spacing" textLength="4" x="580.5" y="293.3545">&#160;</text><text fill="#FFFFFF" font-family="Verdana" font-size="14" lengthAdjust="spacing" textLength="52" x="584.5" y="293.3545">system</text></g><!--entity SWEDBANKPAY--><g id="elem_SWEDBANKPAY"><rect fill="#0B58A8" height="57.25" rx="2.5" ry="2.5" style="stroke:#FFFFFF;stroke-width:1.0;" width="164" x="497" y="83.4063"/><text fill="#FFFFFF" font-family="Verdana" font-size="18" font-weight="bold" lengthAdjust="spacing" textLength="144" x="507" y="110.1143">SwedbankPay</text><text fill="#FFFFFF" font-family="Verdana" font-size="14" lengthAdjust="spacing" textLength="64" x="514.5" y="127.3545">Payment</text><text fill="#FFFFFF" font-family="Verdana" font-size="14" lengthAdjust="spacing" textLength="4" x="578.5" y="127.3545">&#160;</text><text fill="#FFFFFF" font-family="Verdana" font-size="14" lengthAdjust="spacing" textLength="61" x="582.5" y="127.3545">provider</text></g><!--entity ALLERGIES--><g id="elem_ALLERGIES"><rect fill="#0B58A8" height="57.25" rx="2.5" ry="2.5" style="stroke:#FFFFFF;stroke-width:1.0;" width="133" x="1332.5" y="441.4063"/><text fill="#FFFFFF" font-family="Verdana" font-size="18" font-weight="bold" lengthAdjust="spacing" textLength="113" x="1342.5" y="468.1143">ALLERGIES</text><text fill="#FFFFFF" font-family="Verdana" font-size="14" lengthAdjust="spacing" textLength="51" x="1353" y="485.3545">Google</text><text fill="#FFFFFF" font-family="Verdana" font-size="14" lengthAdjust="spacing" textLength="4" x="1404" y="485.3545">&#160;</text><text fill="#FFFFFF" font-family="Verdana" font-size="14" lengthAdjust="spacing" textLength="37" x="1408" y="485.3545">Form</text></g><!--entity TODAY--><g id="elem_TODAY"><rect fill="#0B58A8" height="73.5469" rx="2.5" ry="2.5" style="stroke:#FFFFFF;stroke-width:1.0;" width="110" x="1121" y="583.9063"/><text fill="#FFFFFF" font-family="Verdana" font-size="18" font-weight="bold" lengthAdjust="spacing" textLength="71" x="1140.5" y="610.6143">TODAY</text><text fill="#FFFFFF" font-family="Verdana" font-size="14" lengthAdjust="spacing" textLength="38" x="1131" y="627.8545">Diets</text><text fill="#FFFFFF" font-family="Verdana" font-size="14" lengthAdjust="spacing" textLength="4" x="1169" y="627.8545">&#160;</text><text fill="#FFFFFF" font-family="Verdana" font-size="14" lengthAdjust="spacing" textLength="48" x="1173" y="627.8545">screen</text><text fill="#FFFFFF" font-family="Verdana" font-size="14" lengthAdjust="spacing" textLength="13" x="1139.5" y="644.1514">in</text><text fill="#FFFFFF" font-family="Verdana" font-size="14" lengthAdjust="spacing" textLength="4" x="1152.5" y="644.1514">&#160;</text><text fill="#FFFFFF" font-family="Verdana" font-size="14" lengthAdjust="spacing" textLength="56" x="1156.5" y="644.1514">Kitchen</text></g><!--entity GUESTS--><g id="elem_GUESTS"><rect fill="#0B58A8" height="57.25" rx="2.5" ry="2.5" style="stroke:#FFFFFF;stroke-width:1.0;" width="132" x="1266" y="592.4063"/><text fill="#FFFFFF" font-family="Verdana" font-size="18" font-weight="bold" lengthAdjust="spacing" textLength="83" x="1290.5" y="619.1143">GUESTS</text><text fill="#FFFFFF" font-family="Verdana" font-size="14" lengthAdjust="spacing" textLength="28" x="1276" y="636.3545">Add</text><text fill="#FFFFFF" font-family="Verdana" font-size="14" lengthAdjust="spacing" textLength="4" x="1304" y="636.3545">&#160;</text><text fill="#FFFFFF" font-family="Verdana" font-size="14" lengthAdjust="spacing" textLength="40" x="1308" y="636.3545">guest</text><text fill="#FFFFFF" font-family="Verdana" font-size="14" lengthAdjust="spacing" textLength="4" x="1348" y="636.3545">&#160;</text><text fill="#FFFFFF" font-family="Verdana" font-size="14" lengthAdjust="spacing" textLength="36" x="1352" y="636.3545">diets</text></g><!--entity SERVER--><g id="elem_SERVER"><polygon fill="#3988B8" points="740,264.9063,750,254.9063,904,254.9063,904,291.2031,894,301.2031,740,301.2031,740,264.9063" style="stroke:#FFFFFF;stroke-width:1.0;"/><line style="stroke:#FFFFFF;stroke-width:1.0;" x1="894" x2="904" y1="264.9063" y2="254.9063"/><line style="stroke:#FFFFFF;stroke-width:1.0;" x1="740" x2="894" y1="264.9063" y2="264.9063"/><line style="stroke:#FFFFFF;stroke-width:1.0;" x1="894" x2="894" y1="264.9063" y2="301.2031"/><text fill="#FFFFFF" font-family="Verdana" font-size="14" lengthAdjust="spacing" textLength="124" x="755" y="287.9014">Comers-to-sheet</text></g><!--entity DIETS--><g id="elem_DIETS"><rect fill="#0B58A8" height="88.763" rx="2.5" ry="2.5" style="stroke:#FFFFFF;stroke-width:1.0;" width="126" x="1171" y="425.4063"/><path d="M1218.8333,435.4063 C1216.92,435.4063 1215.3333,436.9929 1215.3333,438.9063 L1215.3333,464.5729 C1215.3333,466.4863 1216.92,468.0729 1218.8333,468.0729 L1249.1667,468.0729 C1251.08,468.0729 1252.6667,466.4863 1252.6667,464.5729 L1252.6667,438.9063 C1252.6667,436.9929 1251.08,435.4063 1249.1667,435.4063 L1218.8333,435.4063 M1220,440.0729 L1224.6667,440.0729 L1224.6667,444.7396 L1220,444.7396 L1220,440.0729 M1229.3333,440.0729 L1248,440.0729 L1248,444.7396 L1229.3333,444.7396 L1229.3333,440.0729 M1220,449.4063 L1224.6667,449.4063 L1224.6667,454.0729 L1220,454.0729 L1220,449.4063 M1229.3333,449.4063 L1248,449.4063 L1248,454.0729 L1229.3333,454.0729 L1229.3333,449.4063 M1220,458.7396 L1224.6667,458.7396 L1224.6667,463.4063 L1220,463.4063 L1220,458.7396 M1229.3333,458.7396 L1248,458.7396 L1248,463.4063 L1229.3333,463.4063 L1229.3333,458.7396 " fill="#FFFFFF" style="stroke:;stroke-width:0.0;stroke-dasharray:;"/><text fill="#FFFFFF" font-family="Verdana" font-size="15" font-weight="bold" lengthAdjust="spacing" textLength="50" x="1209" y="486.6629">DIETS</text><text fill="#FFFFFF" font-family="Verdana" font-size="12" lengthAdjust="spacing" textLength="72" x="1181" y="501.3392">Everybodys</text><text fill="#FFFFFF" font-family="Verdana" font-size="12" lengthAdjust="spacing" textLength="4" x="1253" y="501.3392">&#160;</text><text fill="#FFFFFF" font-family="Verdana" font-size="12" lengthAdjust="spacing" textLength="30" x="1257" y="501.3392">diets</text></g><!--entity WCD--><g id="elem_WCD"><rect fill="#0B58A8" height="88.763" rx="2.5" ry="2.5" style="stroke:#FFFFFF;stroke-width:1.0;" width="145" x="1248.5" y="233.4063"/><path d="M1305.8333,243.4063 C1303.92,243.4063 1302.3333,244.9929 1302.3333,246.9063 L1302.3333,272.5729 C1302.3333,274.4863 1303.92,276.0729 1305.8333,276.0729 L1336.1667,276.0729 C1338.08,276.0729 1339.6667,274.4863 1339.6667,272.5729 L1339.6667,246.9063 C1339.6667,244.9929 1338.08,243.4063 1336.1667,243.4063 L1305.8333,243.4063 M1307,248.0729 L1311.6667,248.0729 L1311.6667,252.7396 L1307,252.7396 L1307,248.0729 M1316.3333,248.0729 L1335,248.0729 L1335,252.7396 L1316.3333,252.7396 L1316.3333,248.0729 M1307,257.4063 L1311.6667,257.4063 L1311.6667,262.0729 L1307,262.0729 L1307,257.4063 M1316.3333,257.4063 L1335,257.4063 L1335,262.0729 L1316.3333,262.0729 L1316.3333,257.4063 M1307,266.7396 L1311.6667,266.7396 L1311.6667,271.4063 L1307,271.4063 L1307,266.7396 M1316.3333,266.7396 L1335,266.7396 L1335,271.4063 L1316.3333,271.4063 L1316.3333,266.7396 " fill="#FFFFFF" style="stroke:;stroke-width:0.0;stroke-dasharray:;"/><text fill="#FFFFFF" font-family="Verdana" font-size="15" font-weight="bold" lengthAdjust="spacing" textLength="28" x="1258.5" y="294.6629">WC</text><text fill="#FFFFFF" font-family="Verdana" font-size="15" font-weight="bold" lengthAdjust="spacing" textLength="5" x="1286.5" y="294.6629">&#160;</text><text fill="#FFFFFF" font-family="Verdana" font-size="15" font-weight="bold" lengthAdjust="spacing" textLength="92" x="1291.5" y="294.6629">DATABASE</text><text fill="#FFFFFF" font-family="Verdana" font-size="12" lengthAdjust="spacing" textLength="50" x="1261" y="309.3392">Working</text><text fill="#FFFFFF" font-family="Verdana" font-size="12" lengthAdjust="spacing" textLength="4" x="1311" y="309.3392">&#160;</text><text fill="#FFFFFF" font-family="Verdana" font-size="12" lengthAdjust="spacing" textLength="66" x="1315" y="309.3392">Community</text></g><g id="elem_GMN17"><path d="M1428.5,260.4063 L1428.5,273.9063 L1393.84,277.9063 L1428.5,281.9063 L1428.5,295.6719 A2.5,2.5 0 0 0 1431,298.1719 L1655,298.1719 A2.5,2.5 0 0 0 1657.5,295.6719 L1657.5,267.9063 L1647.5,257.9063 L1431,257.9063 A2.5,2.5 0 0 0 1428.5,260.4063 " fill="#0B58A8" style="stroke:#FFFFFF;stroke-width:1.0;"/><path d="M1647.5,257.9063 L1647.5,266.6563 A1.25,1.25 0 0 0 1648.75,267.9063 L1657.5,267.9063 L1647.5,257.9063 " fill="#0B58A8" style="stroke:#FFFFFF;stroke-width:1.0;"/><ellipse cx="1440" cy="270.5391" fill="#FFFFFF" rx="2.5" ry="2.5" style="stroke:#FFFFFF;stroke-width:0.0;"/><text fill="#FFFFFF" font-family="Verdana" font-size="13" lengthAdjust="spacing" textLength="26" x="1446.5" y="274.9731">This</text><text fill="#FFFFFF" font-family="Verdana" font-size="13" lengthAdjust="spacing" textLength="4" x="1472.5" y="274.9731">&#160;</text><text fill="#FFFFFF" font-family="Verdana" font-size="13" lengthAdjust="spacing" textLength="26" x="1476.5" y="274.9731">was</text><text fill="#FFFFFF" font-family="Verdana" font-size="13" lengthAdjust="spacing" textLength="4" x="1502.5" y="274.9731">&#160;</text><text fill="#FFFFFF" font-family="Verdana" font-size="13" lengthAdjust="spacing" textLength="31" x="1506.5" y="274.9731">used</text><text fill="#FFFFFF" font-family="Verdana" font-size="13" lengthAdjust="spacing" textLength="4" x="1537.5" y="274.9731">&#160;</text><text fill="#FFFFFF" font-family="Verdana" font-size="13" lengthAdjust="spacing" textLength="32" x="1541.5" y="274.9731">2021</text><text fill="#FFFFFF" font-family="Verdana" font-size="13" lengthAdjust="spacing" textLength="4" x="1573.5" y="274.9731">&#160;</text><text fill="#FFFFFF" font-family="Verdana" font-size="13" lengthAdjust="spacing" textLength="21" x="1577.5" y="274.9731">but</text><text fill="#FFFFFF" font-family="Verdana" font-size="13" lengthAdjust="spacing" textLength="4" x="1598.5" y="274.9731">&#160;</text><text fill="#FFFFFF" font-family="Verdana" font-size="13" lengthAdjust="spacing" textLength="20" x="1602.5" y="274.9731">will</text><text fill="#FFFFFF" font-family="Verdana" font-size="13" lengthAdjust="spacing" textLength="4" x="1622.5" y="274.9731">&#160;</text><text fill="#FFFFFF" font-family="Verdana" font-size="13" lengthAdjust="spacing" textLength="16" x="1626.5" y="274.9731">be</text><text fill="#FFFFFF" font-family="Verdana" font-size="13" lengthAdjust="spacing" textLength="77" x="1446.5" y="290.106">deprecated.</text></g><!--entity CUSTOMER--><g id="elem_CUSTOMER"><ellipse cx="427" cy="89.9063" fill="#0B58A8" rx="16" ry="16" style="stroke:#FFFFFF;stroke-width:1.5;"/><path d="M427,109.9063 C431,109.9063 434,109.9063 438,105.9063 C446,105.9063 454,113.9063 454,121.9063 L454,125.9063 C454,129.9063 450,133.9063 446,133.9063 L408,133.9063 C404,133.9063 400,129.9063 400,125.9063 L400,121.9063 C400,113.9063 408,105.9063 416,105.9063 C420,109.9063 423,109.9063 427,109.9063 " fill="#0B58A8" style="stroke:#FFFFFF;stroke-width:1.5;"/><text fill="#FFFFFF" font-family="Verdana" font-size="14" lengthAdjust="spacing" textLength="70" x="392" y="148.4014">Customer</text></g><!--entity MALIN--><g id="elem_MALIN"><ellipse cx="282" cy="447.9063" fill="#0B58A8" rx="16" ry="16" style="stroke:#FFFFFF;stroke-width:1.5;"/><path d="M282,467.9063 C286,467.9063 289,467.9063 293,463.9063 C301,463.9063 309,471.9063 309,479.9063 L309,483.9063 C309,487.9063 305,491.9063 301,491.9063 L263,491.9063 C259,491.9063 255,487.9063 255,483.9063 L255,479.9063 C255,471.9063 263,463.9063 271,463.9063 C275,467.9063 278,467.9063 282,467.9063 " fill="#0B58A8" style="stroke:#FFFFFF;stroke-width:1.5;"/><text fill="#FFFFFF" font-family="Verdana" font-size="14" lengthAdjust="spacing" textLength="56" x="221.5" y="506.4014">Product</text><text fill="#FFFFFF" font-family="Verdana" font-size="14" lengthAdjust="spacing" textLength="4" x="277.5" y="506.4014">&#160;</text><text fill="#FFFFFF" font-family="Verdana" font-size="14" lengthAdjust="spacing" textLength="61" x="281.5" y="506.4014">Manager</text></g><!--entity ERIK--><g id="elem_ERIK"><polygon fill="#3988B8" points="312,264.9063,322,254.9063,476,254.9063,476,291.2031,466,301.2031,312,301.2031,312,264.9063" style="stroke:#FFFFFF;stroke-width:1.0;"/><line style="stroke:#FFFFFF;stroke-width:1.0;" x1="466" x2="476" y1="264.9063" y2="254.9063"/><line style="stroke:#FFFFFF;stroke-width:1.0;" x1="312" x2="466" y1="264.9063" y2="264.9063"/><line style="stroke:#FFFFFF;stroke-width:1.0;" x1="466" x2="466" y1="264.9063" y2="301.2031"/><text fill="#FFFFFF" font-family="Verdana" font-size="14" lengthAdjust="spacing" textLength="124" x="327" y="287.9014">Sheet-to-comers</text></g><g id="elem_GMN44"><path d="M11,244.9063 L11,310.4375 A2.5,2.5 0 0 0 13.5,312.9375 L274.5,312.9375 A2.5,2.5 0 0 0 277,310.4375 L277,281.9063 L311.946,277.9063 L277,273.9063 L277,252.4063 L267,242.4063 L13.5,242.4063 A2.5,2.5 0 0 0 11,244.9063 " fill="#0B58A8" style="stroke:#FFFFFF;stroke-width:1.0;"/><path d="M267,242.4063 L267,251.1563 A1.25,1.25 0 0 0 268.25,252.4063 L277,252.4063 L267,242.4063 " fill="#0B58A8" style="stroke:#FFFFFF;stroke-width:1.0;"/><ellipse cx="22.5" cy="255.0391" fill="#FFFFFF" rx="2.5" ry="2.5" style="stroke:#FFFFFF;stroke-width:0.0;"/><text fill="#FFFFFF" font-family="Verdana" font-size="13" lengthAdjust="spacing" textLength="108" x="29" y="259.4731">Sheet-to-comers</text><text fill="#FFFFFF" font-family="Verdana" font-size="13" lengthAdjust="spacing" textLength="4" x="137" y="259.4731">&#160;</text><text fill="#FFFFFF" font-family="Verdana" font-size="13" lengthAdjust="spacing" textLength="10" x="141" y="259.4731">is</text><text fill="#FFFFFF" font-family="Verdana" font-size="13" lengthAdjust="spacing" textLength="4" x="151" y="259.4731">&#160;</text><text fill="#FFFFFF" font-family="Verdana" font-size="13" lengthAdjust="spacing" textLength="8" x="155" y="259.4731">a</text><text fill="#FFFFFF" font-family="Verdana" font-size="13" lengthAdjust="spacing" textLength="4" x="163" y="259.4731">&#160;</text><text fill="#FFFFFF" font-family="Verdana" font-size="13" lengthAdjust="spacing" textLength="57" x="167" y="259.4731">software</text><text fill="#FFFFFF" font-family="Verdana" font-size="13" lengthAdjust="spacing" textLength="4" x="224" y="259.4731">&#160;</text><text fill="#FFFFFF" font-family="Verdana" font-size="13" lengthAdjust="spacing" textLength="13" x="228" y="259.4731">to</text><text fill="#FFFFFF" font-family="Verdana" font-size="13" lengthAdjust="spacing" textLength="63" x="29" y="274.606">automate</text><text fill="#FFFFFF" font-family="Verdana" font-size="13" lengthAdjust="spacing" textLength="4" x="92" y="274.606">&#160;</text><text fill="#FFFFFF" font-family="Verdana" font-size="13" lengthAdjust="spacing" textLength="37" x="96" y="274.606">event</text><text fill="#FFFFFF" font-family="Verdana" font-size="13" lengthAdjust="spacing" textLength="4" x="133" y="274.606">&#160;</text><text fill="#FFFFFF" font-family="Verdana" font-size="13" lengthAdjust="spacing" textLength="52" x="137" y="274.606">creation</text><text fill="#FFFFFF" font-family="Verdana" font-size="13" lengthAdjust="spacing" textLength="4" x="189" y="274.606">&#160;</text><text fill="#FFFFFF" font-family="Verdana" font-size="13" lengthAdjust="spacing" textLength="11" x="193" y="274.606">in</text><text fill="#FFFFFF" font-family="Verdana" font-size="13" lengthAdjust="spacing" textLength="4" x="204" y="274.606">&#160;</text><text fill="#FFFFFF" font-family="Verdana" font-size="13" lengthAdjust="spacing" textLength="54" x="208" y="274.606">Comers.</text><text fill="#FFFFFF" font-family="Verdana" font-size="13" lengthAdjust="spacing" textLength="33" x="29" y="289.7388">Read</text><text fill="#FFFFFF" font-family="Verdana" font-size="13" lengthAdjust="spacing" textLength="4" x="62" y="289.7388">&#160;</text><text fill="#FFFFFF" font-family="Verdana" font-size="13" lengthAdjust="spacing" textLength="34" x="66" y="289.7388">more</text><text fill="#FFFFFF" font-family="Verdana" font-size="13" lengthAdjust="spacing" textLength="4" x="100" y="289.7388">&#160;</text><text fill="#FFFFFF" font-family="Verdana" font-size="13" lengthAdjust="spacing" textLength="37" x="104" y="289.7388">under</text><text fill="#FFFFFF" font-family="Verdana" font-size="13" lengthAdjust="spacing" textLength="4" x="141" y="289.7388">&#160;</text><text fill="#FFFFFF" font-family="Verdana" font-size="13" lengthAdjust="spacing" textLength="44" x="145" y="289.7388">Guides</text><text fill="#FFFFFF" font-family="Verdana" font-size="13" lengthAdjust="spacing" textLength="4" x="189" y="289.7388">&#160;</text><text fill="#FFFFFF" font-family="Verdana" font-size="13" lengthAdjust="spacing" textLength="10" x="193" y="289.7388">&gt;</text><text fill="#FFFFFF" font-family="Verdana" font-size="13" lengthAdjust="spacing" textLength="108" x="29" y="304.8716">Sheet-to-comers</text></g><g id="elem_GMN47"><path d="M939,214.9063 L939,273.9063 L904.352,277.9063 L939,281.9063 L939,340.9688 A2.5,2.5 0 0 0 941.5,343.4688 L1210.5,343.4688 A2.5,2.5 0 0 0 1213,340.9688 L1213,222.4063 L1203,212.4063 L941.5,212.4063 A2.5,2.5 0 0 0 939,214.9063 " fill="#0B58A8" style="stroke:#FFFFFF;stroke-width:1.0;"/><path d="M1203,212.4063 L1203,221.1563 A1.25,1.25 0 0 0 1204.25,222.4063 L1213,222.4063 L1203,212.4063 " fill="#0B58A8" style="stroke:#FFFFFF;stroke-width:1.0;"/><ellipse cx="950.5" cy="225.0391" fill="#FFFFFF" rx="2.5" ry="2.5" style="stroke:#FFFFFF;stroke-width:0.0;"/><text fill="#FFFFFF" font-family="Verdana" font-size="13" lengthAdjust="spacing" textLength="109" x="957" y="229.4731">Comers-to-sheet</text><text fill="#FFFFFF" font-family="Verdana" font-size="13" lengthAdjust="spacing" textLength="4" x="1066" y="229.4731">&#160;</text><text fill="#FFFFFF" font-family="Verdana" font-size="13" lengthAdjust="spacing" textLength="44" x="1070" y="229.4731">checks</text><text fill="#FFFFFF" font-family="Verdana" font-size="13" lengthAdjust="spacing" textLength="4" x="1114" y="229.4731">&#160;</text><text fill="#FFFFFF" font-family="Verdana" font-size="13" lengthAdjust="spacing" textLength="50" x="1118" y="229.4731">Comers</text><text fill="#FFFFFF" font-family="Verdana" font-size="13" lengthAdjust="spacing" textLength="4" x="1168" y="229.4731">&#160;</text><text fill="#FFFFFF" font-family="Verdana" font-size="13" lengthAdjust="spacing" textLength="18" x="1172" y="229.4731">for</text><text fill="#FFFFFF" font-family="Verdana" font-size="13" lengthAdjust="spacing" textLength="54" x="957" y="244.606">changes</text><text fill="#FFFFFF" font-family="Verdana" font-size="13" lengthAdjust="spacing" textLength="4" x="1011" y="244.606">&#160;</text><text fill="#FFFFFF" font-family="Verdana" font-size="13" lengthAdjust="spacing" textLength="37" x="1015" y="244.606">every</text><text fill="#FFFFFF" font-family="Verdana" font-size="13" lengthAdjust="spacing" textLength="4" x="1052" y="244.606">&#160;</text><text fill="#FFFFFF" font-family="Verdana" font-size="13" lengthAdjust="spacing" textLength="16" x="1056" y="244.606">10</text><text fill="#FFFFFF" font-family="Verdana" font-size="13" lengthAdjust="spacing" textLength="4" x="1072" y="244.606">&#160;</text><text fill="#FFFFFF" font-family="Verdana" font-size="13" lengthAdjust="spacing" textLength="56" x="1076" y="244.606">minutes.</text><text fill="#FFFFFF" font-family="Verdana" font-size="13" lengthAdjust="spacing" textLength="4" x="1132" y="244.606">&#160;</text><text fill="#FFFFFF" font-family="Verdana" font-size="13" lengthAdjust="spacing" textLength="37" x="1136" y="244.606">When</text><text fill="#FFFFFF" font-family="Verdana" font-size="13" lengthAdjust="spacing" textLength="55" x="957" y="259.7388">changed</text><text fill="#FFFFFF" font-family="Verdana" font-size="13" lengthAdjust="spacing" textLength="4" x="1012" y="259.7388">&#160;</text><text fill="#FFFFFF" font-family="Verdana" font-size="13" lengthAdjust="spacing" textLength="57" x="1016" y="259.7388">bookings</text><text fill="#FFFFFF" font-family="Verdana" font-size="13" lengthAdjust="spacing" textLength="4" x="1073" y="259.7388">&#160;</text><text fill="#FFFFFF" font-family="Verdana" font-size="13" lengthAdjust="spacing" textLength="21" x="1077" y="259.7388">are</text><text fill="#FFFFFF" font-family="Verdana" font-size="13" lengthAdjust="spacing" textLength="4" x="1098" y="259.7388">&#160;</text><text fill="#FFFFFF" font-family="Verdana" font-size="13" lengthAdjust="spacing" textLength="41" x="1102" y="259.7388">found,</text><text fill="#FFFFFF" font-family="Verdana" font-size="13" lengthAdjust="spacing" textLength="86" x="957" y="274.8716">new/changed</text><text fill="#FFFFFF" font-family="Verdana" font-size="13" lengthAdjust="spacing" textLength="4" x="1043" y="274.8716">&#160;</text><text fill="#FFFFFF" font-family="Verdana" font-size="13" lengthAdjust="spacing" textLength="57" x="1047" y="274.8716">bookings</text><text fill="#FFFFFF" font-family="Verdana" font-size="13" lengthAdjust="spacing" textLength="4" x="1104" y="274.8716">&#160;</text><text fill="#FFFFFF" font-family="Verdana" font-size="13" lengthAdjust="spacing" textLength="21" x="1108" y="274.8716">are</text><text fill="#FFFFFF" font-family="Verdana" font-size="13" lengthAdjust="spacing" textLength="4" x="1129" y="274.8716">&#160;</text><text fill="#FFFFFF" font-family="Verdana" font-size="13" lengthAdjust="spacing" textLength="28" x="1133" y="274.8716">sent</text><text fill="#FFFFFF" font-family="Verdana" font-size="13" lengthAdjust="spacing" textLength="4" x="1161" y="274.8716">&#160;</text><text fill="#FFFFFF" font-family="Verdana" font-size="13" lengthAdjust="spacing" textLength="13" x="1165" y="274.8716">to</text><text fill="#FFFFFF" font-family="Verdana" font-size="13" lengthAdjust="spacing" textLength="54" x="957" y="290.0044">COMERS</text><text fill="#FFFFFF" font-family="Verdana" font-size="13" lengthAdjust="spacing" textLength="4" x="1011" y="290.0044">&#160;</text><text fill="#FFFFFF" font-family="Verdana" font-size="13" lengthAdjust="spacing" textLength="73" x="1015" y="290.0044">OVERVIEW.</text><ellipse cx="950.5" cy="300.7031" fill="#FFFFFF" rx="2.5" ry="2.5" style="stroke:#FFFFFF;stroke-width:0.0;"/><text fill="#FFFFFF" font-family="Verdana" font-size="13" lengthAdjust="spacing" textLength="109" x="957" y="305.1372">Comers-to-sheet</text><text fill="#FFFFFF" font-family="Verdana" font-size="13" lengthAdjust="spacing" textLength="4" x="1066" y="305.1372">&#160;</text><text fill="#FFFFFF" font-family="Verdana" font-size="13" lengthAdjust="spacing" textLength="28" x="1070" y="305.1372">runs</text><text fill="#FFFFFF" font-family="Verdana" font-size="13" lengthAdjust="spacing" textLength="4" x="1098" y="305.1372">&#160;</text><text fill="#FFFFFF" font-family="Verdana" font-size="13" lengthAdjust="spacing" textLength="28" x="1102" y="305.1372">24/7</text><text fill="#FFFFFF" font-family="Verdana" font-size="13" lengthAdjust="spacing" textLength="4" x="1130" y="305.1372">&#160;</text><text fill="#FFFFFF" font-family="Verdana" font-size="13" lengthAdjust="spacing" textLength="31" x="1134" y="305.1372">from</text><text fill="#FFFFFF" font-family="Verdana" font-size="13" lengthAdjust="spacing" textLength="4" x="1165" y="305.1372">&#160;</text><text fill="#FFFFFF" font-family="Verdana" font-size="13" lengthAdjust="spacing" textLength="8" x="1169" y="305.1372">a</text><text fill="#FFFFFF" font-family="Verdana" font-size="13" lengthAdjust="spacing" textLength="62" x="957" y="320.27">computer</text><text fill="#FFFFFF" font-family="Verdana" font-size="13" lengthAdjust="spacing" textLength="4" x="1019" y="320.27">&#160;</text><text fill="#FFFFFF" font-family="Verdana" font-size="13" lengthAdjust="spacing" textLength="26" x="1023" y="320.27">that</text><text fill="#FFFFFF" font-family="Verdana" font-size="13" lengthAdjust="spacing" textLength="4" x="1049" y="320.27">&#160;</text><text fill="#FFFFFF" font-family="Verdana" font-size="13" lengthAdjust="spacing" textLength="39" x="1053" y="320.27">needs</text><text fill="#FFFFFF" font-family="Verdana" font-size="13" lengthAdjust="spacing" textLength="4" x="1092" y="320.27">&#160;</text><text fill="#FFFFFF" font-family="Verdana" font-size="13" lengthAdjust="spacing" textLength="13" x="1096" y="320.27">to</text><text fill="#FFFFFF" font-family="Verdana" font-size="13" lengthAdjust="spacing" textLength="4" x="1109" y="320.27">&#160;</text><text fill="#FFFFFF" font-family="Verdana" font-size="13" lengthAdjust="spacing" textLength="16" x="1113" y="320.27">be</text><text fill="#FFFFFF" font-family="Verdana" font-size="13" lengthAdjust="spacing" textLength="4" x="1129" y="320.27">&#160;</text><text fill="#FFFFFF" font-family="Verdana" font-size="13" lengthAdjust="spacing" textLength="45" x="1133" y="320.27">always</text><text fill="#FFFFFF" font-family="Verdana" font-size="13" lengthAdjust="spacing" textLength="4" x="1178" y="320.27">&#160;</text><text fill="#FFFFFF" font-family="Verdana" font-size="13" lengthAdjust="spacing" textLength="16" x="1182" y="320.27">on</text><text fill="#FFFFFF" font-family="Verdana" font-size="13" lengthAdjust="spacing" textLength="24" x="957" y="335.4028">and</text><text fill="#FFFFFF" font-family="Verdana" font-size="13" lengthAdjust="spacing" textLength="4" x="981" y="335.4028">&#160;</text><text fill="#FFFFFF" font-family="Verdana" font-size="13" lengthAdjust="spacing" textLength="67" x="985" y="335.4028">connected</text><text fill="#FFFFFF" font-family="Verdana" font-size="13" lengthAdjust="spacing" textLength="4" x="1052" y="335.4028">&#160;</text><text fill="#FFFFFF" font-family="Verdana" font-size="13" lengthAdjust="spacing" textLength="13" x="1056" y="335.4028">to</text><text fill="#FFFFFF" font-family="Verdana" font-size="13" lengthAdjust="spacing" textLength="4" x="1069" y="335.4028">&#160;</text><text fill="#FFFFFF" font-family="Verdana" font-size="13" lengthAdjust="spacing" textLength="54" x="1073" y="335.4028">internet.</text></g><!--link CUSTOMER to SWEDBANKPAY--><g id="link_CUSTOMER_SWEDBANKPAY"><path d="M462.031,111.9063 C473.606,111.9063 479.181,111.9063 490.756,111.9063 " fill="none" id="CUSTOMER-to-SWEDBANKPAY" style="stroke:#FFFFFF;stroke-width:1.0;"/><polygon fill="#FFFFFF" points="496.756,111.9063,487.756,107.9063,491.756,111.9063,487.756,115.9063,496.756,111.9063" style="stroke:#FFFFFF;stroke-width:1.0;"/></g><!--link SWEDBANKPAY to COMERS--><g id="link_SWEDBANKPAY_COMERS"><path d="M579,140.7263 C579,170.9752 579,213.0293 579,243.2233 " fill="none" id="SWEDBANKPAY-to-COMERS" style="stroke:#FFFFFF;stroke-width:1.0;"/><polygon fill="#FFFFFF" points="579,249.2233,583,240.2233,579,244.2233,575,240.2233,579,249.2233" style="stroke:#FFFFFF;stroke-width:1.0;"/></g><!--link COMERS to SERVER--><g id="link_COMERS_SERVER"><path d="M646.689,277.9063 C675.618,277.9063 703.648,277.9063 733.991,277.9063 " fill="none" id="COMERS-to-SERVER" style="stroke:#FFFFFF;stroke-width:1.0;stroke-dasharray:7.0,7.0;"/><polygon fill="#FFFFFF" points="739.991,277.9063,730.991,273.9063,734.991,277.9063,730.991,281.9063,739.991,277.9063" style="stroke:#FFFFFF;stroke-width:1.0;"/><text fill="#FFFFFF" font-family="Verdana" font-size="13" lengthAdjust="spacing" textLength="57" x="664.75" y="240.9731">Bookings</text><text fill="#FFFFFF" font-family="Verdana" font-size="13" lengthAdjust="spacing" textLength="37" x="664.75" y="256.106">every</text><text fill="#FFFFFF" font-family="Verdana" font-size="13" lengthAdjust="spacing" textLength="4" x="701.75" y="256.106">&#160;</text><text fill="#FFFFFF" font-family="Verdana" font-size="13" lengthAdjust="spacing" textLength="16" x="705.75" y="256.106">10</text><text fill="#FFFFFF" font-family="Verdana" font-size="13" lengthAdjust="spacing" textLength="52" x="667.25" y="271.2388">minutes</text></g><!--link SERVER to BOOKINGS--><g id="link_SERVER_BOOKINGS"><path d="M837.984,301.0733 C859.865,331.4193 896.1038,381.6775 924.0618,420.4515 " fill="none" id="SERVER-to-BOOKINGS" style="stroke:#FFFFFF;stroke-width:1.0;stroke-dasharray:7.0,7.0;"/><polygon fill="#FFFFFF" points="927.571,425.3183,925.5517,415.6786,924.6467,421.2626,919.0627,420.3575,927.571,425.3183" style="stroke:#FFFFFF;stroke-width:1.0;"/></g><!--link SERVER to PAYMENTS--><g id="link_SERVER_PAYMENTS"><path d="M815.35,301.0733 C806.246,331.4193 791.4321,380.7973 779.8001,419.5713 " fill="none" id="SERVER-to-PAYMENTS" style="stroke:#FFFFFF;stroke-width:1.0;stroke-dasharray:7.0,7.0;"/><polygon fill="#FFFFFF" points="778.076,425.3183,784.4934,417.8472,779.5127,420.5291,776.8308,415.5484,778.076,425.3183" style="stroke:#FFFFFF;stroke-width:1.0;"/></g><!--link BOOKINGS to EVENTS--><g id="link_BOOKINGS_EVENTS"><path d="M903.571,514.6043 C876.34,536.0722 848.5678,557.9666 822.4528,578.5546 " fill="none" id="BOOKINGS-to-EVENTS" style="stroke:#FFFFFF;stroke-width:1.0;"/><polygon fill="#FFFFFF" points="817.741,582.2693,827.2852,579.8385,821.6675,579.1737,822.3324,573.5561,817.741,582.2693" style="stroke:#FFFFFF;stroke-width:1.0;"/></g><!--link BOOKINGS to EMAILS--><g id="link_BOOKINGS_EMAILS"><path d="M953.402,514.8053 C950.928,534.2053 948.7859,551.0054 946.3169,570.3694 " fill="none" id="BOOKINGS-to-EMAILS" style="stroke:#FFFFFF;stroke-width:1.0;"/><polygon fill="#FFFFFF" points="945.558,576.3213,950.6642,567.8995,946.1904,571.3614,942.7284,566.8876,945.558,576.3213" style="stroke:#FFFFFF;stroke-width:1.0;"/></g><!--link BOOKINGS to DIETS--><g id="link_BOOKINGS_DIETS"><path d="M1027.68,469.9063 C1071.59,469.9063 1122.12,469.9063 1164.89,469.9063 " fill="none" id="BOOKINGS-to-DIETS" style="stroke:#FFFFFF;stroke-width:1.0;"/><polygon fill="#FFFFFF" points="1170.89,469.9063,1161.89,465.9063,1165.89,469.9063,1161.89,473.9063,1170.89,469.9063" style="stroke:#FFFFFF;stroke-width:1.0;"/><text fill="#FFFFFF" font-family="Verdana" font-size="13" lengthAdjust="spacing" textLength="68" x="1065.25" y="447.9731">Participant</text><text fill="#FFFFFF" font-family="Verdana" font-size="13" lengthAdjust="spacing" textLength="31" x="1083.75" y="463.106">diets</text></g><!--link WCD to DIETS--><g id="link_WCD_DIETS"><path d="M1301.04,322.4963 C1286.94,353.2823 1270.628,388.921 1256.518,419.735 " fill="none" id="WCD-to-DIETS" style="stroke:#FFFFFF;stroke-width:1.0;"/><polygon fill="#FFFFFF" points="1254.02,425.1903,1261.4039,418.6727,1256.1017,420.6442,1254.1302,415.342,1254.02,425.1903" style="stroke:#FFFFFF;stroke-width:1.0;"/></g><!--reverse link DIETS to ALLERGIES--><g id="link_DIETS_ALLERGIES"><path d="M1303.16,469.9063 C1314.83,469.9063 1320.5,469.9063 1332.17,469.9063 " fill="none" id="DIETS-backto-ALLERGIES" style="stroke:#FFFFFF;stroke-width:1.0;"/><polygon fill="#FFFFFF" points="1297.16,469.9063,1306.16,473.9063,1302.16,469.9063,1306.16,465.9063,1297.16,469.9063" style="stroke:#FFFFFF;stroke-width:1.0;"/></g><!--link DIETS to TODAY--><g id="link_DIETS_TODAY"><path d="M1216.91,514.8053 C1208.36,536.7813 1200.3067,557.465 1192.2167,578.246 " fill="none" id="DIETS-to-TODAY" style="stroke:#FFFFFF;stroke-width:1.0;"/><polygon fill="#FFFFFF" points="1190.04,583.8373,1197.0325,576.9015,1191.8539,579.1779,1189.5775,573.9993,1190.04,583.8373" style="stroke:#FFFFFF;stroke-width:1.0;"/></g><!--reverse link DIETS to GUESTS--><g id="link_DIETS_GUESTS"><path d="M1266.1676,519.8178 C1282.6576,544.8838 1299.53,570.5313 1313.81,592.2513 " fill="none" id="DIETS-backto-GUESTS" style="stroke:#FFFFFF;stroke-width:1.0;"/><polygon fill="#FFFFFF" points="1262.87,514.8053,1264.4747,524.5225,1265.618,518.9824,1271.1581,520.1257,1262.87,514.8053" style="stroke:#FFFFFF;stroke-width:1.0;"/></g><!--link SETUP to LINK--><g id="link_SETUP_LINK"><path d="M518.055,469.9063 C552.615,469.9063 587.175,469.9063 621.735,469.9063 " fill="none" id="SETUP-LINK" style="stroke:#FFFFFF;stroke-width:1.0;"/></g><!--link MALIN to SETUP--><g id="link_MALIN_SETUP"><path d="M342.629,469.9063 C354.291,469.9063 359.953,469.9063 371.615,469.9063 " fill="none" id="MALIN-to-SETUP" style="stroke:#FFFFFF;stroke-width:1.0;stroke-dasharray:1.0,3.0;"/><polygon fill="#FFFFFF" points="377.615,469.9063,368.615,465.9063,372.615,469.9063,368.615,473.9063,377.615,469.9063" style="stroke:#FFFFFF;stroke-width:1.0;"/></g><!--reverse link ERIK to SETUP--><g id="link_ERIK_SETUP"><path d="M401.9402,306.8447 C410.4812,336.8977 424.289,385.4803 435.291,424.1883 " fill="none" id="ERIK-backto-SETUP" style="stroke:#FFFFFF;stroke-width:1.0;stroke-dasharray:7.0,7.0;"/><polygon fill="#FFFFFF" points="400.3,301.0733,398.9127,310.8239,401.6669,305.8828,406.608,308.6369,400.3,301.0733" style="stroke:#FFFFFF;stroke-width:1.0;"/></g><!--link ERIK to COMERS--><g id="link_ERIK_COMERS"><path d="M476.021,277.9063 C487.821,277.9063 493.621,277.9063 505.42,277.9063 " fill="none" id="ERIK-to-COMERS" style="stroke:#FFFFFF;stroke-width:1.0;stroke-dasharray:7.0,7.0;"/><polygon fill="#FFFFFF" points="511.42,277.9063,502.42,273.9063,506.42,277.9063,502.42,281.9063,511.42,277.9063" style="stroke:#FFFFFF;stroke-width:1.0;"/></g><rect fill="none" height="62.8906" id="_legend" rx="2.5" ry="2.5" style="stroke:#FFFFFF;stroke-width:1.0;" width="219" x="1426.5" y="692.4063"/><text fill="#FFFFFF" font-family="Verdana" font-size="14" font-weight="bold" lengthAdjust="spacing" textLength="42" x="1436.5" y="712.4014">Lines</text><text fill="#FFFFFF" font-family="Verdana" font-size="14" font-weight="bold" lengthAdjust="spacing" textLength="39" x="1497.5" y="712.4014">Type</text><text fill="#FFFFFF" font-family="Verdana" font-size="14" lengthAdjust="spacing" textLength="53" x="1435.5" y="728.6982">Dashed</text><text fill="#FFFFFF" font-family="Verdana" font-size="14" lengthAdjust="spacing" textLength="51" x="1496.5" y="728.6982">Python</text><text fill="#FFFFFF" font-family="Verdana" font-size="14" lengthAdjust="spacing" textLength="35" x="1435.5" y="744.9951">Solid</text><text fill="#FFFFFF" font-family="Verdana" font-size="14" lengthAdjust="spacing" textLength="140" x="1496.5" y="744.9951">Google Apps Script</text><line style="stroke:#FFFFFF;stroke-width:1.0;" x1="1431.5" x2="1640.5" y1="699.4063" y2="699.4063"/><line style="stroke:#FFFFFF;stroke-width:1.0;" x1="1431.5" x2="1640.5" y1="715.7031" y2="715.7031"/><line style="stroke:#FFFFFF;stroke-width:1.0;" x1="1431.5" x2="1640.5" y1="732" y2="732"/><line style="stroke:#FFFFFF;stroke-width:1.0;" x1="1431.5" x2="1640.5" y1="748.2969" y2="748.2969"/><line style="stroke:#FFFFFF;stroke-width:1.0;" x1="1431.5" x2="1431.5" y1="699.4063" y2="748.2969"/><line style="stroke:#FFFFFF;stroke-width:1.0;" x1="1492.5" x2="1492.5" y1="699.4063" y2="748.2969"/><line style="stroke:#FFFFFF;stroke-width:1.0;" x1="1640.5" x2="1640.5" y1="699.4063" y2="748.2969"/><text fill="#FFFFFF" font-family="Verdana" font-size="10" font-weight="bold" lengthAdjust="spacing" textLength="95" x="780.25" y="775.5791">November 2023</text><!--SRC=[RLR_Jziu5F_TVyLR3zsEgcc1xJHkefK2pQ220YA5QbgdavkuhKTYvso7hXlxt-_PJjCMfaY9vVV5d_VUvptdZLcmd07D-PmI_SX5GHNDOK55EbRS62PWHZFDjcGqCLB5PfMXsP9fcMyBbIn5UYQLO0h-tjhFwVSXqvhEMSn_C3WyEDWIBXKjnZmr2pZwS43UmaQIiXajCpDYtqsOyRd8cJ2Gu8ifGawq1T4ZYYM6YZdY-KakfE8_f30qUwN_YmYPMfqfJHxd5T1CAlZZtJ_7nwV7g73IgLmImmtwwtRFReRHNGmt3z7Tmo0QJyI9HlmV3uzwdGuNCqMrKMLYIiKw7RH6MO_CfCJpeDcybayid-BowE3eNRD9CZPd8WN5vmj3dhjmnGNJ-1sj2WRFv1dwL2zO2izmkp8BATnUB3Dkjywbj266HQ4XJXGl38hHdNTAC6sVIf4OBeKcRqhnNuaWKYYKJ5YAy60lNZ1c_jgZ6QUw1NikGlocJ3jlQDXjDFQtikbLuGiv-LCNYj5KMmy_TK8prdt_gqUwtQvtG-giRBjRv-ChUOC8QoGMwitq6nwZIO6bG4v0uqMU6rYc2l3fpStbuFeyRa6zkkBQW9nXXccMDPimbH8PCzVxQvle8ReUeKNrZH6m1iKAgSn6PnWEhgoE_pRkDQPhXdHOiYn1KWFBASzqepQu3JyFlTjw5IzPEgNYyPQkm2WgDFK5s2VSKcv64mmD7ypYrU3w4XbM-OgZqVrjoy7xrwztKz_edY44fIVYrCS6UgKDovqhdwiTxIqW4u4lntlC-1DFcN96yJZgduRNbuXznpAykehkpWTHF14Lmpv9vS-fHJi6evj- -7aY-fmP3LXhniH4S06Nt2GB9fobqzcnEh-FuX6U4QOfp4k6zKkj0wVjPRux6pxkmCZ0iSrZHr94T-lSzGSHfjw_eoUcLbEPhhJtju_SMgTu4BLyfW9S1W-3U1Ys6Z7EBkI2vYoOSSkAcP8v-4CtfHwVzLlZC-Y7e_0qZAFMM2fN1DJBIy7D2i-fL4SNKNmHHQCMBi2l7cHMOlcnxscQSu5aLTJI0eoKsJx6QLWr0vemMd0DIuonjFJ3EN48qzB0acSPJ1dEFsoyX68djsslWxKbRW1ZfafjB6xFYVjuP8DT2s-LJ74kmP0Ax2-lCmoHX5MQ7NYRvSI7RkNHtU3IDYUEfKTDrXuXS5Y3tWw5jjOGf78fK5xnichbeEtishsgV1-XeZAIcjcouIKm4PYVqZ2Df-vuV6LRSNfZUpGH2ragJRm6j2q8D5WFYNg_LxUhFQJQB0lhUn2HjNeTX1yPlzbtOs9hVvqLHqGBK1cUy88ACn6EYmHPL9ixBL9t50GPczNMnFKBd0Hb4LGxlYV0xgoLx0IfxC3D3E8A2i6NLE95dNxjLTlkNSNeQcfVDX5LWTw-20vFMBEOU7RQG-o0TTRD5rm1P2m5BMTcIV5UCH9eYKH4aWBMnjwtU5SulkDKy9tLXZkyFY37tWEyTh4ppakSJ1eGygxp3SitRMAHL2EW-M8y08wSv55NnxZndU2_onnThpa65SNQCCRnL8dJ-iu06yFC_WoqGB1bvxToRSF2G5_SKktNU5GfD1ozxtpmWuK2XbMKzdV0BAZ14rYghIViRPejASujp1F-RA6U43WlyMIKkjj3CBDf-ly1]--></g></svg>