<?xml version="1.0" encoding="utf-8"?>
<!-- Generator: Adobe Illustrator 23.0.2, SVG Export Plug-In . SVG Version: 6.00 Build 0)  -->
<svg version="1.1" id="Layer_1" xmlns="http://www.w3.org/2000/svg" xmlns:xlink="http://www.w3.org/1999/xlink" x="0px" y="0px"
	 viewBox="0 0 494.4 435.3" style="enable-background:new 0 0 494.4 435.3;" xml:space="preserve">
<style type="text/css">
	.st0{fill:url(#SVGID_1_);}
	.st1{fill:url(#SVGID_2_);}
	.st2{fill:url(#SVGID_3_);}
	.st3{fill:url(#SVGID_4_);}
	.st4{fill:url(#SVGID_5_);}
	.st5{fill:url(#SVGID_6_);}
	.st6{fill:url(#SVGID_7_);}
	.st7{fill:url(#SVGID_8_);}
	.st8{fill:url(#SVGID_9_);}
	.st9{fill:url(#SVGID_10_);}
	.st10{fill:url(#SVGID_11_);}
	.st11{fill:#B10051;}
	.st12{fill:url(#SVGID_12_);}
	.st13{fill:url(#SVGID_13_);}
	.st14{fill:url(#SVGID_14_);}
	.st15{fill:url(#SVGID_15_);}
	.st16{fill:url(#SVGID_16_);}
</style>
<g>
	
		<linearGradient id="SVGID_1_" gradientUnits="userSpaceOnUse" x1="352.8707" y1="532.6732" x2="388.9439" y2="481.3413" gradientTransform="matrix(1 0 0 -1 0 594)">
		<stop  offset="0" style="stop-color:#FFF89F"/>
		<stop  offset="1" style="stop-color:#F99D1C"/>
	</linearGradient>
	<path class="st0" d="M336.6,69.4c5,16.5,6.6,31.8,4.9,46.7c-0.8,6.9-2.5,12.4-4.7,16.9c3.4-3.6,8-7.1,14.2-10.2l0,0
		c13.4-6.8,28.3-10.5,45.5-11.6l1.5-0.1c4.4-22,4.8-46.4,5-72.9c-24.8,9.2-47.6,18-66.7,29.7L336.6,69.4z"/>
	
		<linearGradient id="SVGID_2_" gradientUnits="userSpaceOnUse" x1="181.354" y1="549.0169" x2="239.6288" y2="493.5203" gradientTransform="matrix(1 0 0 -1 0 594)">
		<stop  offset="0" style="stop-color:#FFF89F"/>
		<stop  offset="1" style="stop-color:#F99D1C"/>
	</linearGradient>
	<path class="st1" d="M181.2,92.5c16.8,4,30.8,10.3,42.9,19.2c5.5,4.1,9.5,8.3,12.2,12.5c-1.4-4.8-2.2-10.5-1.7-17.4l0,0
		c0.9-15,5.1-29.8,12.8-45.3l0.7-1.3c-16.9-14.8-37.8-27.4-60.6-40.8c-4.4,26.1-8.2,50.3-7.6,72.6L181.2,92.5z"/>
	
		<linearGradient id="SVGID_3_" gradientUnits="userSpaceOnUse" x1="274.6267" y1="562.9954" x2="335.6804" y2="474.1992" gradientTransform="matrix(1 0 0 -1 0 594)">
		<stop  offset="0" style="stop-color:#FFDB9D"/>
		<stop  offset="1" style="stop-color:#F5841F"/>
	</linearGradient>
	<path class="st2" d="M255.9,60c12.6,11.9,21.5,24.3,27.5,38.1c2.8,6.4,4.1,11.9,4.4,17c1.2-4.9,3.4-10.2,7.2-15.9
		c8.3-12.5,19.3-23.2,33.7-32.8l1.3-0.8C322.8,44.3,310.9,23,297.9,0C281,20.4,265.7,39.4,255,59.1L255.9,60z"/>
	
		<linearGradient id="SVGID_4_" gradientUnits="userSpaceOnUse" x1="384.2989" y1="499.0491" x2="443.9338" y2="415.8437" gradientTransform="matrix(1 0 0 -1 0 594)">
		<stop  offset="0" style="stop-color:#FFDB9D"/>
		<stop  offset="1" style="stop-color:#F5841F"/>
	</linearGradient>
	<path class="st3" d="M402.1,117.8c-4,16.8-10.3,30.9-19.2,42.9c-4.1,5.6-8.3,9.5-12.5,12.3c4.8-1.5,10.5-2.1,17.4-1.7
		c14.9,0.9,29.7,5.1,45.1,12.8l1.3,0.6c14.8-16.8,27.3-37.8,40.7-60.7c-26.2-4.4-50.3-8.2-72.6-7.6L402.1,117.8z"/>
	
		<linearGradient id="SVGID_5_" gradientUnits="userSpaceOnUse" x1="419.7399" y1="392.298" x2="451.6111" y2="341.0332" gradientTransform="matrix(1 0 0 -1 0 594)">
		<stop  offset="0" style="stop-color:#FFF89F"/>
		<stop  offset="1" style="stop-color:#F99D1C"/>
	</linearGradient>
	<path class="st4" d="M435.4,191.4l-1,1.1c-11.9,12.6-24.3,21.6-38,27.6c-6.4,2.7-12,4-17,4.3c4.8,1.1,10.1,3.4,15.9,7.2
		c12.5,8.3,23.2,19.3,32.7,33.7l0.8,1.2c21.3-7.2,42.5-19,65.6-32.2C474,217.5,455.1,202.1,435.4,191.4z"/>
	
		<linearGradient id="SVGID_6_" gradientUnits="userSpaceOnUse" x1="113.7498" y1="508.7509" x2="205.2968" y2="410.268" gradientTransform="matrix(1 0 0 -1 0 594)">
		<stop  offset="0" style="stop-color:#FFDB9D"/>
		<stop  offset="1" style="stop-color:#F5841F"/>
	</linearGradient>
	<path class="st5" d="M132.8,157.9c16.5-4.9,31.8-6.5,46.7-4.8c6.9,0.8,12.4,2.5,16.8,4.7c-3.6-3.4-7.1-8-10.2-14.2
		c-6.7-13.5-10.5-28.4-11.5-45.6l-0.1-1.4c-22-4.4-46.4-4.8-72.8-5c9.3,24.9,18,47.6,29.7,66.7L132.8,157.9z"/>
	
		<linearGradient id="SVGID_7_" gradientUnits="userSpaceOnUse" x1="227.2396" y1="530.4507" x2="288.5077" y2="441.3427" gradientTransform="matrix(1 0 0 -1 0 594)">
		<stop  offset="0" style="stop-color:#FFDB9D"/>
		<stop  offset="1" style="stop-color:#F5841F"/>
	</linearGradient>
	<path class="st6" d="M261.3,140.2c1.2,0.1,2.5,0.1,3.7,0c1.6-0.3,3.2-0.8,4.7-1.5c8.4-3.9,18.3-16.3,8.7-38.4
		c-6.1-14-15.2-25.8-26.3-36.3c-6.9,13.7-11.3,27.9-12.3,43.2C238.5,131.2,252.1,139.4,261.3,140.2z"/>
	
		<linearGradient id="SVGID_8_" gradientUnits="userSpaceOnUse" x1="141.1845" y1="534.3016" x2="232.7485" y2="435.8005" gradientTransform="matrix(1 0 0 -1 0 594)">
		<stop  offset="0" style="stop-color:#FFDB9D"/>
		<stop  offset="1" style="stop-color:#F5841F"/>
	</linearGradient>
	<path class="st7" d="M226,159.1c1.1-0.5,2.2-1.2,3.2-1.9c1.2-1.1,2.4-2.2,3.3-3.7c5.3-7.6,7.7-23.3-11.6-37.6
		c-12.2-9.1-26-14.7-40.9-18.3c0.9,15.3,4.1,29.8,10.9,43.5C201.8,162.8,217.6,163.1,226,159.1z"/>
	
		<linearGradient id="SVGID_9_" gradientUnits="userSpaceOnUse" x1="339.6754" y1="470.7977" x2="402.3356" y2="383.3713" gradientTransform="matrix(1 0 0 -1 0 594)">
		<stop  offset="0" style="stop-color:#FFDB9D"/>
		<stop  offset="1" style="stop-color:#F5841F"/>
	</linearGradient>
	<path class="st8" d="M354.4,198c-0.1,1.3-0.1,2.5,0,3.7c0.4,1.6,0.8,3.2,1.5,4.8c3.9,8.4,16.3,18.4,38.4,8.8
		c14-6.1,25.7-15.2,36.3-26.4c-13.7-6.8-27.9-11.3-43.2-12.3C363.4,175.1,355.2,188.8,354.4,198z"/>
	
		<linearGradient id="SVGID_10_" gradientUnits="userSpaceOnUse" x1="267.3524" y1="558.3066" x2="328.5992" y2="469.2295" gradientTransform="matrix(1 0 0 -1 0 594)">
		<stop  offset="0" style="stop-color:#FFDB9D"/>
		<stop  offset="1" style="stop-color:#F5841F"/>
	</linearGradient>
	<path class="st9" d="M299.4,102.1c-13.3,20.1-5.5,34,2,39.3c1.1,0.7,2.2,1.3,3.2,1.8c1.5,0.5,3.1,0.9,4.9,1.1
		c9.3,0.8,24-5,26.8-28.9c1.7-15.3-0.3-29.9-4.7-44.6C318.7,79.3,307.8,89.3,299.4,102.1z"/>
	
		<linearGradient id="SVGID_11_" gradientUnits="userSpaceOnUse" x1="350.2728" y1="476.3481" x2="414.6939" y2="386.4648" gradientTransform="matrix(1 0 0 -1 0 594)">
		<stop  offset="0" style="stop-color:#FFDB9D"/>
		<stop  offset="1" style="stop-color:#F5841F"/>
	</linearGradient>
	<path class="st10" d="M335.5,162.6c0.5,1.1,1.1,2.1,1.8,3.1c1.1,1.3,2.3,2.5,3.7,3.5c7.6,5.3,23.3,7.8,37.6-11.7
		c9.1-12.3,14.7-26,18.2-41c-15.3,0.9-29.8,4.1-43.5,11C331.8,138.3,331.5,154.2,335.5,162.6z"/>
	<path class="st11" d="M175.8,221.3c136.5-3.3,252,89.3,277.6,214c-7-133.5-123-238-262.5-234.6C117.8,202.5,52.6,233.5,7,281.9
		C53.1,245.3,111.6,222.8,175.8,221.3z"/>
	
		<radialGradient id="SVGID_12_" cx="278.9046" cy="382.2961" r="82.2234" gradientTransform="matrix(1 0 0 -1.0011 0 593.8082)" gradientUnits="userSpaceOnUse">
		<stop  offset="0" style="stop-color:#F9A57A"/>
		<stop  offset="0.1349" style="stop-color:#F69F75"/>
		<stop  offset="0.324" style="stop-color:#EF8F67"/>
		<stop  offset="0.5449" style="stop-color:#E67754"/>
		<stop  offset="0.788" style="stop-color:#DB543B"/>
		<stop  offset="1" style="stop-color:#D12828"/>
	</radialGradient>
	<path class="st12" d="M344.4,238.8c2.6-7.7,10-13,19.5-15.8c-9.2-4.6-15.9-11.6-16.7-20.1c-1.6-8,2.2-16.2,9-23.4
		c-10.3,0.7-19.5-2-24.5-9.1c-5.3-6.1-6.2-15.2-3.9-24.7c-8.6,5.7-17.9,8-25.7,4.4c-7.6-2.6-12.9-10-15.7-19.5
		c-4.6,9.3-11.5,15.9-20,16.7c-8,1.6-16.2-2.2-23.4-9c0.7,10.3-2,19.5-9,24.5c-6.1,5.3-15.2,6.2-24.8,3.9c5.8,8.6,8,17.9,4.4,25.8
		c-1.1,3.2-3.1,6-5.6,8.3c49.9,1.9,96.2,17.6,134.9,43.3C343.1,242.3,343.6,240.6,344.4,238.8z"/>
	
		<linearGradient id="SVGID_13_" gradientUnits="userSpaceOnUse" x1="372.7844" y1="364.9258" x2="443.5177" y2="263.6805" gradientTransform="matrix(1 0 0 -1 0 594)">
		<stop  offset="0" style="stop-color:#FFDB9D"/>
		<stop  offset="1" style="stop-color:#F5841F"/>
	</linearGradient>
	<path class="st13" d="M456.2,339.7c-9.2-24.8-18-47.6-29.7-66.7l-1.4,0.4c-14.4,4.3-27.7,5.9-40.8,5.2
		c17.4,17.9,32.2,38.3,43.4,60.7C437,339.5,446.4,339.6,456.2,339.7z"/>
	
		<linearGradient id="SVGID_14_" gradientUnits="userSpaceOnUse" x1="101.4666" y1="414.4758" x2="129.1874" y2="374.2836" gradientTransform="matrix(1 0 0 -1 0 594)">
		<stop  offset="0" style="stop-color:#FFF89F"/>
		<stop  offset="1" style="stop-color:#F99D1C"/>
	</linearGradient>
	<path class="st14" d="M162.6,199.7c-12.5-8.3-23.2-19.3-32.7-33.8l-0.8-1.2c-21.2,7.2-42.5,19.1-65.5,32.2
		c10.5,8.7,20.6,17,30.7,24.4c22.6-9.6,47.1-16.2,72.6-19.1C165.5,201.6,164.1,200.7,162.6,199.7z"/>
	
		<linearGradient id="SVGID_15_" gradientUnits="userSpaceOnUse" x1="101.9126" y1="498.3391" x2="194.0252" y2="399.2478" gradientTransform="matrix(1 0 0 -1 0 594)">
		<stop  offset="0" style="stop-color:#FFDB9D"/>
		<stop  offset="1" style="stop-color:#F5841F"/>
	</linearGradient>
	<path class="st15" d="M195.6,200.6c4.1-1.8,7.3-4.6,9.3-7.4c0.7-1,1.2-2.1,1.8-3.2c0.5-1.5,1-3.2,1.1-4.9
		c0.8-9.2-4.9-24.1-28.8-26.8c-15.2-1.7-29.9,0.2-44.5,4.6c8.4,12.8,18.5,23.8,31.2,32.2c4.6,3,8.8,4.9,12.6,6
		c4.2-0.3,8.5-0.5,12.7-0.6C192.5,200.6,194.1,200.6,195.6,200.6z"/>
	
		<linearGradient id="SVGID_16_" gradientUnits="userSpaceOnUse" x1="367.6777" y1="362.8081" x2="439.757" y2="259.636" gradientTransform="matrix(1 0 0 -1 0 594)">
		<stop  offset="0" style="stop-color:#FFDB9D"/>
		<stop  offset="1" style="stop-color:#F5841F"/>
	</linearGradient>
	<path class="st16" d="M379.1,273c15.2,1.7,29.9-0.3,44.5-4.7c-8.4-12.8-18.4-23.7-31.2-32.2c-20.1-13.3-34-5.6-39.3,2
		c-0.7,1-1.3,2.1-1.8,3.2c-0.5,1.6-0.9,3.2-1.1,4.9c-0.1,1-0.1,2,0,3.1c10,7.2,19.5,15.1,28.3,23.6
		C378.7,272.9,378.9,272.9,379.1,273z"/>
</g>
</svg>
