<?xml version="1.0" encoding="UTF-8" standalone="no"?>
<svg
   xmlns:dc="http://purl.org/dc/elements/1.1/"
   xmlns:cc="http://creativecommons.org/ns#"
   xmlns:rdf="http://www.w3.org/1999/02/22-rdf-syntax-ns#"
   xmlns:svg="http://www.w3.org/2000/svg"
   xmlns="http://www.w3.org/2000/svg"
   xmlns:sodipodi="http://sodipodi.sourceforge.net/DTD/sodipodi-0.dtd"
   xmlns:inkscape="http://www.inkscape.org/namespaces/inkscape"
   version="1.1"
   id="svg2"
   xml:space="preserve"
   width="469.33334"
   height="469.33334"
   viewBox="0 0 469.33334 469.33334"
   sodipodi:docname="logo.eps"><metadata
     id="metadata8"><rdf:RDF><cc:Work
         rdf:about=""><dc:format>image/svg+xml</dc:format><dc:type
           rdf:resource="http://purl.org/dc/dcmitype/StillImage" /></cc:Work></rdf:RDF></metadata><defs
     id="defs6"><clipPath
       clipPathUnits="userSpaceOnUse"
       id="clipPath20"><path
         d="m 0,22.8711 h 3520 v 3487.13 H 0 Z"
         id="path18" /></clipPath></defs><sodipodi:namedview
     pagecolor="#ffffff"
     bordercolor="#666666"
     borderopacity="1"
     objecttolerance="10"
     gridtolerance="10"
     guidetolerance="10"
     inkscape:pageopacity="0"
     inkscape:pageshadow="2"
     inkscape:window-width="640"
     inkscape:window-height="480"
     id="namedview4" /><g
     id="g10"
     inkscape:groupmode="layer"
     inkscape:label="ink_ext_XXXXXX"
     transform="matrix(1.3333333,0,0,-1.3333333,0,469.33333)"><g
       id="g12"
       transform="scale(0.1)"><g
         id="g14"><g
           id="g16"
           clip-path="url(#clipPath20)"><path
             d="m 1655.24,2096.97 c 2.74,0 5.51,0.19 8.26,0.5 2.74,0.31 5.48,0.75 8.19,1.21 3.35,1.05 6.77,2.2 10.17,3.58 3.38,1.4 6.75,3.01 10.01,5.01 17.73,10.46 36.4,30.39 44.22,59.44 7.81,29.05 4.78,67.23 -20.92,114.15 -16.24,29.8 -35.62,56.8 -57.63,81.62 -22.02,24.82 -46.66,47.45 -73.38,68.52 -12.48,-31.8 -22.24,-63.82 -28.62,-96.41 -6.38,-32.59 -9.4,-65.74 -8.42,-99.81 1.71,-53.6 18.42,-88.09 39.86,-109.18 21.44,-21.08 47.62,-28.73 68.26,-28.63"
             style="fill:#395e9d;fill-opacity:1;fill-rule:nonzero;stroke:none"
             id="path22" /><path
             d="m 1836.82,2106.39 c 2.37,-1.38 4.86,-2.59 7.39,-3.69 2.54,-1.11 5.12,-2.11 7.7,-3.06 3.43,-0.76 6.96,-1.48 10.6,-1.98 3.63,-0.5 7.35,-0.76 11.17,-0.66 20.58,0.18 46.72,8.1 68.02,29.37 21.29,21.24 37.74,55.82 38.95,109.31 0.84,33.92 -2.44,67 -9.1,99.5 -6.65,32.5 -16.67,64.42 -29.28,96.04 -26.71,-21.31 -51.17,-44.17 -72.99,-69.2 -21.82,-25.03 -41.01,-52.23 -57.2,-82.23 -25.32,-47.26 -28.1,-85.49 -20.07,-114.47 8.03,-28.98 26.88,-48.7 44.81,-58.93"
             style="fill:#395e9d;fill-opacity:1;fill-rule:nonzero;stroke:none"
             id="path24" /><path
             d="m 1998.96,2023.59 c 1.36,-2.37 2.91,-4.66 4.55,-6.89 1.65,-2.22 3.39,-4.38 5.15,-6.49 2.58,-2.38 5.28,-4.77 8.18,-7.01 2.9,-2.25 5.99,-4.35 9.35,-6.17 17.92,-10.13 44.52,-16.34 73.59,-8.58 29.06,7.76 60.61,29.47 88.39,75.2 17.7,28.95 31.38,59.24 41.87,90.71 10.49,31.48 17.77,64.13 22.66,97.82 -33.79,-5.09 -66.39,-12.66 -97.81,-23.43 -31.41,-10.77 -61.64,-24.74 -90.65,-42.62 -45.56,-28.26 -67.09,-59.99 -74.62,-89.1 -7.53,-29.11 -1.07,-55.6 9.34,-73.44"
             style="fill:#f0ab50;fill-opacity:1;fill-rule:nonzero;stroke:none"
             id="path26" /><path
             d="m 2097.27,1870.57 c 0,-2.74 0.2,-5.5 0.5,-8.26 0.31,-2.74 0.74,-5.47 1.21,-8.19 1.05,-3.35 2.2,-6.77 3.59,-10.16 1.38,-3.39 3,-6.77 5,-10.01 10.45,-17.74 30.39,-36.41 59.44,-44.23 29.06,-7.81 67.23,-4.78 114.15,20.92 29.81,16.24 56.8,35.63 81.62,57.64 24.82,22.01 47.46,46.65 68.53,73.37 -31.81,12.48 -63.83,22.24 -96.42,28.62 -32.59,6.38 -65.74,9.4 -99.81,8.42 -53.59,-1.71 -88.1,-18.42 -109.18,-39.86 -21.08,-21.44 -28.73,-47.62 -28.63,-68.26"
             style="fill:#395e9d;fill-opacity:1;fill-rule:nonzero;stroke:none"
             id="path28" /><path
             d="m 1527.73,2023.69 c -1.36,-2.38 -2.91,-4.67 -4.55,-6.89 -1.64,-2.22 -3.39,-4.39 -5.15,-6.49 -2.58,-2.38 -5.28,-4.77 -8.18,-7.02 -2.9,-2.24 -5.99,-4.34 -9.35,-6.16 -17.91,-10.13 -44.51,-16.34 -73.59,-8.58 -29.06,7.75 -60.61,29.48 -88.39,75.2 -17.69,28.95 -31.38,59.25 -41.87,90.72 -10.48,31.47 -17.77,64.12 -22.66,97.8 33.79,-5.09 66.39,-12.66 97.81,-23.43 31.42,-10.76 61.64,-24.73 90.65,-42.61 45.56,-28.27 67.09,-59.99 74.62,-89.11 7.54,-29.1 1.07,-55.6 -9.34,-73.43"
             style="fill:#395e9d;fill-opacity:1;fill-rule:nonzero;stroke:none"
             id="path30" /><path
             d="m 1428.71,1870.92 c 0,-2.74 -0.19,-5.5 -0.5,-8.25 -0.31,-2.74 -0.74,-5.48 -1.21,-8.19 -1.04,-3.36 -2.2,-6.78 -3.58,-10.16 -1.39,-3.4 -3.02,-6.76 -5.02,-10.02 -10.44,-17.74 -30.38,-36.41 -59.43,-44.23 -29.06,-7.81 -67.22,-4.77 -114.15,20.92 -29.8,16.24 -56.81,35.63 -81.62,57.64 -24.81,22.01 -47.45,46.65 -68.53,73.37 31.81,12.49 63.83,22.24 96.42,28.62 32.59,6.39 65.75,9.4 99.82,8.42 53.59,-1.7 88.08,-18.41 109.17,-39.86 21.07,-21.44 28.72,-47.61 28.63,-68.26"
             style="fill:#395e9d;fill-opacity:1;fill-rule:nonzero;stroke:none"
             id="path32" /><path
             d="m 2412.38,1800.12 c -1.34,-4.95 -2.33,-10.02 -3.09,-15.14 -0.77,-5.12 -1.32,-10.27 -1.79,-15.39 0.27,-6.56 0.7,-13.3 1.56,-20.1 0.86,-6.8 2.16,-13.67 4.2,-20.52 10.29,-37.09 37.27,-80.48 85.98,-108.66 48.7,-28.19 119.13,-41.18 216.34,-17.46 61.7,14.9 119.87,36.86 175.35,64.6 55.49,27.76 108.32,61.31 159.32,99.4 -51.41,37.95 -104.55,71.06 -160.33,98.37 -55.79,27.3 -114.23,48.81 -176.24,63.52 -97.65,22.87 -168.07,9.38 -216.53,-19.15 -48.46,-28.54 -74.96,-72.13 -84.77,-109.47"
             style="fill:#81b19f;fill-opacity:1;fill-rule:nonzero;stroke:none"
             id="path34" /><path
             d="m 1171.83,2065.89 c 3.64,3.63 7.03,7.53 10.25,11.58 3.22,4.04 6.28,8.23 9.24,12.43 3.05,5.82 6.05,11.86 8.7,18.19 2.66,6.32 4.96,12.92 6.61,19.86 9.64,37.27 7.98,88.35 -20.12,137.11 -28.08,48.76 -82.59,95.21 -178.62,123.28 -60.886,17.95 -122.234,28.01 -184.167,31.73 -61.93,3.71 -124.457,1.06 -187.664,-6.42 25.543,-58.57 55,-113.81 89.664,-165.36 34.66,-51.54 74.519,-99.38 120.867,-143.13 73.129,-68.63 140.855,-92.16 197.09,-91.68 56.24,0.49 100.98,24.98 128.15,52.41"
             style="fill:#81b19f;fill-opacity:1;fill-rule:nonzero;stroke:none"
             id="path36" /><path
             d="m 1399.51,2318.47 c 4.96,1.32 9.84,3.01 14.66,4.9 4.81,1.89 9.55,3.99 14.22,6.15 5.55,3.52 11.17,7.25 16.63,11.4 5.45,4.15 10.75,8.7 15.67,13.89 26.98,27.47 51.06,72.52 51.12,128.8 0.05,56.27 -23.92,123.76 -93.06,196.08 -43.75,45.99 -91.85,85.38 -143.62,119.56 -51.79,34.18 -107.25,63.15 -165.74,88.28 -7.16,-63.5 -9.27,-126.07 -5.02,-188.04 4.25,-61.97 14.84,-123.32 33.1,-184.39 29.03,-96 75.9,-150.24 124.86,-177.95 48.94,-27.7 99.93,-28.85 137.18,-18.68"
             style="fill:#81b19f;fill-opacity:1;fill-rule:nonzero;stroke:none"
             id="path38" /><path
             d="m 1723.44,2423.42 c 4.95,-1.34 10.02,-2.32 15.15,-3.09 5.11,-0.77 10.26,-1.32 15.38,-1.78 6.56,0.27 13.29,0.69 20.1,1.55 6.8,0.87 13.66,2.17 20.52,4.2 37.09,10.29 80.48,37.27 108.66,85.98 28.19,48.7 41.17,119.13 17.46,216.35 -14.9,61.69 -36.86,119.86 -64.6,175.35 -27.76,55.48 -61.31,108.31 -99.39,159.32 -37.96,-51.42 -71.07,-104.55 -98.38,-160.34 -27.3,-55.79 -48.81,-114.22 -63.52,-176.24 -22.87,-97.65 -9.38,-168.06 19.15,-216.52 28.54,-48.47 72.13,-74.97 109.47,-84.78"
             style="fill:#81b19f;fill-opacity:1;fill-rule:nonzero;stroke:none"
             id="path40" /><path
             d="m 2055.84,2351.06 c 3.63,-3.64 7.53,-7.02 11.57,-10.25 4.05,-3.22 8.24,-6.28 12.43,-9.24 5.83,-3.05 11.87,-6.05 18.19,-8.7 6.32,-2.65 12.93,-4.95 19.87,-6.61 37.27,-9.64 88.34,-7.97 137.1,20.12 48.76,28.08 95.22,82.59 123.29,178.63 17.95,60.88 28.01,122.24 31.72,184.16 3.72,61.94 1.06,124.46 -6.41,187.66 -58.57,-25.54 -113.82,-55 -165.36,-89.66 -51.54,-34.66 -99.38,-74.52 -143.14,-120.87 -68.63,-73.13 -92.15,-140.85 -91.67,-197.09 0.49,-56.24 24.98,-100.98 52.41,-128.15"
             style="fill:#81b19f;fill-opacity:1;fill-rule:nonzero;stroke:none"
             id="path42" /><path
             d="m 2308.06,2123.65 c 1.33,-4.96 3.01,-9.84 4.9,-14.65 1.9,-4.81 3.99,-9.55 6.15,-14.22 3.52,-5.56 7.24,-11.17 11.39,-16.63 4.15,-5.45 8.72,-10.76 13.9,-15.67 27.47,-26.98 72.52,-51.06 128.8,-51.12 56.26,-0.06 123.76,23.92 196.08,93.06 45.98,43.75 85.38,91.85 119.56,143.62 34.18,51.78 63.15,107.25 88.28,165.74 -63.5,7.16 -126.07,9.26 -188.04,5.02 -61.97,-4.25 -123.32,-14.85 -184.39,-33.1 -96,-29.03 -150.24,-75.91 -177.94,-124.86 -27.71,-48.95 -28.86,-99.94 -18.69,-137.19"
             style="fill:#81b19f;fill-opacity:1;fill-rule:nonzero;stroke:none"
             id="path44" /><path
             d="m 1100.12,1800.35 c 1.33,-4.95 2.31,-10.02 3.08,-15.14 0.77,-5.12 1.32,-10.27 1.79,-15.39 -0.27,-6.57 -0.7,-13.3 -1.56,-20.1 -0.86,-6.8 -2.16,-13.67 -4.2,-20.51 -10.3,-37.1 -37.27,-80.49 -85.97,-108.68 -48.709,-28.18 -119.147,-41.16 -216.354,-17.45 -61.695,14.9 -119.859,36.86 -175.351,64.61 -55.489,27.75 -108.309,61.3 -159.317,99.39 51.407,37.95 104.547,71.07 160.332,98.37 55.785,27.3 114.227,48.81 176.246,63.53 97.649,22.86 168.059,9.38 216.524,-19.16 48.46,-28.54 74.97,-72.13 84.78,-109.47"
             style="fill:#81b19f;fill-opacity:1;fill-rule:nonzero;stroke:none"
             id="path46" /><path
             d="m 583.102,2390.54 c 55.621,-130.39 126.574,-234.99 216.332,-320.04 40.964,-39.17 80.976,-65 119.222,-81.36 -41.39,4.88 -89.211,2.66 -144.644,-10.64 -121.633,-28.43 -235.391,-81.47 -351.481,-166.02 -0.976,-0.29 -4.148,-2.14 -5.129,-2.43 -1.824,-0.55 -3.66,-1.11 -5.484,-1.65 -2.223,-0.05 -4.832,0.3 -7.535,1.4 -1.199,0.48 -2.442,1.19 -3.77,2.27 -96.605,78.39 -123.855,117.41 -199.828,189.41 0,0 -108.4881,119.66 -184.8748,209.04 -7.46879,8.74 -7.23051,17.45 -6.08598,22.31 1.28908,4.5 4.60938,11.55 16.15628,15.53 52.3281,18.05 174.2895,60.09 268.8865,87.82 107.313,31.45 152.035,41.81 268.906,62.58 6.153,1.09 8.899,0.69 12.618,-1.26 3.328,-1.74 5.172,-3.37 6.711,-6.96"
             style="fill:#dae2a7;fill-opacity:1;fill-rule:nonzero;stroke:none"
             id="path48" /><path
             d="m 624.723,2471.42 c 142.656,16.52 270.05,7.18 389.427,-27.89 54.8,-15.84 97.32,-37.42 130.62,-62.15 -24.7,33.09 -46.26,75.15 -61.79,129.21 -34.73,118.24 -43.81,241.85 -26.21,382.95 -0.21,0.99 -0.13,4.61 -0.36,5.6 -0.41,1.84 -0.83,3.68 -1.24,5.52 -1.05,1.92 -2.65,3.99 -4.94,5.76 -1.02,0.79 -2.27,1.51 -3.87,2.12 -116.852,44.21 -164.762,48.36 -265.813,78.03 0,0 -159.192,34.1 -275.809,55.58 -11.402,2.1 -18.992,-2.39 -22.726,-5.76 -3.348,-3.32 -7.942,-9.64 -5.782,-21.49 9.801,-53.74 32.653,-178.97 54.7,-273.68 25.004,-107.46 37.859,-150.88 77.019,-261.28 2.055,-5.8 3.762,-7.96 7.313,-10.19 3.179,-2 5.523,-2.77 9.461,-2.33"
             style="fill:#dae2a7;fill-opacity:1;fill-rule:nonzero;stroke:none"
             id="path50" /><path
             d="m 1722.83,3097.85 c -86.77,-113.56 -143.36,-227.21 -173.53,-347.06 -14.08,-54.88 -16.94,-102.2 -12.39,-143.21 -16.17,37.9 -41.74,77.7 -80.78,118.43 -85.03,89.73 -187.72,160.26 -319.17,216.87 -0.74,0.69 -3.92,2.46 -4.66,3.15 -1.39,1.29 -2.78,2.57 -4.16,3.86 -1.14,1.88 -2.12,4.29 -2.5,7.15 -0.17,1.28 -0.16,2.71 0.13,4.39 20.95,122.34 41.68,165.41 67.23,266.86 0,0 51.25,153.39 91.82,263.98 3.96,10.82 11.72,15.02 16.54,16.5 4.59,1.18 12.4,1.9 21.59,-5.97 41.67,-35.66 138.79,-118.79 209.82,-185.73 80.59,-75.94 111.76,-108.98 187.71,-198.52 4,-4.71 5.01,-7.26 5.14,-11.43 0.12,-3.74 -0.4,-6.12 -2.79,-9.27"
             style="fill:#dae2a7;fill-opacity:1;fill-rule:nonzero;stroke:none"
             id="path52" /><path
             d="m 2947.81,2391.69 c -56.96,-130.59 -128.99,-235.43 -219.62,-320.8 -41.38,-39.31 -81.65,-65.28 -120.06,-81.78 41.44,5.02 89.23,2.97 144.53,-10.13 121.34,-28.03 234.54,-80.68 349.76,-164.83 0.98,-0.29 4.13,-2.12 5.1,-2.41 1.83,-0.55 3.65,-1.09 5.48,-1.64 2.22,-0.03 4.82,0.33 7.54,1.43 1.21,0.48 2.46,1.2 3.8,2.28 97.41,78.73 125.06,117.84 201.76,190.13 0,0 109.73,120.03 187.04,209.68 7.55,8.76 7.4,17.47 6.31,22.33 -1.24,4.5 -4.5,11.54 -16,15.48 -52.14,17.86 -173.67,59.5 -267.97,86.89 -107,31.08 -151.61,41.28 -268.26,61.65 -6.15,1.08 -8.89,0.67 -12.64,-1.29 -3.34,-1.76 -5.19,-3.39 -6.77,-6.99"
             style="fill:#dae2a7;fill-opacity:1;fill-rule:nonzero;stroke:none"
             id="path54" /><path
             d="m 2901.29,2474.02 c -142.54,15.55 -270,5.36 -389.62,-30.52 -54.91,-16.21 -97.58,-38.07 -131.04,-63.02 24.91,33.24 46.77,75.46 62.67,129.62 35.52,118.48 45.45,242.15 28.8,383.15 0.23,0.98 0.18,4.61 0.41,5.59 0.42,1.84 0.85,3.68 1.28,5.52 1.07,1.93 2.67,4.01 4.98,5.8 1.03,0.8 2.27,1.53 3.88,2.14 117.16,45.01 165.1,49.49 266.35,79.83 0,0 159.43,35.17 276.19,57.44 11.42,2.17 18.98,-2.27 22.69,-5.61 3.32,-3.31 7.88,-9.59 5.64,-21.46 -10.17,-53.8 -33.88,-179.18 -56.56,-274.05 -25.75,-107.63 -38.9,-151.14 -78.8,-261.8 -2.1,-5.82 -3.82,-7.99 -7.39,-10.24 -3.19,-2.02 -5.54,-2.8 -9.48,-2.39"
             style="fill:#dae2a7;fill-opacity:1;fill-rule:nonzero;stroke:none"
             id="path56" /><path
             d="m 1806.57,3095.55 c 86,-112.99 141.82,-226.26 171.18,-345.91 13.7,-54.78 16.24,-102.08 11.4,-143.13 16.44,38.02 42.28,77.99 81.6,118.99 85.64,90.29 188.81,161.52 320.65,219.02 0.75,0.68 3.95,2.49 4.69,3.18 1.4,1.29 2.79,2.59 4.18,3.89 1.15,1.89 2.15,4.3 2.55,7.16 0.17,1.29 0.18,2.71 -0.1,4.38 -20.12,122.22 -40.56,165.14 -65.42,266.42 -0.01,0 -50.2,153.05 -90.02,263.38 -3.89,10.78 -11.62,14.93 -16.42,16.39 -4.59,1.14 -12.4,1.81 -21.64,-6.12 -41.92,-35.95 -139.6,-119.74 -211.1,-187.15 -81.1,-76.5 -112.5,-109.75 -189.06,-199.78 -4.03,-4.75 -5.05,-7.3 -5.21,-11.48 -0.15,-3.73 0.36,-6.12 2.72,-9.24"
             style="fill:#dae2a7;fill-opacity:1;fill-rule:nonzero;stroke:none"
             id="path58" /><path
             d="m 1864.75,1435.9 c -2.74,0 -5.5,-0.2 -8.25,-0.5 -2.74,-0.31 -5.49,-0.74 -8.19,-1.21 -3.35,-1.05 -6.77,-2.19 -10.17,-3.59 -3.38,-1.38 -6.76,-3 -10.01,-5 -17.73,-10.45 -36.41,-30.39 -44.23,-59.44 -7.81,-29.05 -4.77,-67.23 20.93,-114.15 16.23,-29.81 35.62,-56.8 57.63,-81.62 22.02,-24.82 46.65,-47.46 73.38,-68.53 12.48,31.81 22.24,63.83 28.62,96.42 6.38,32.59 9.39,65.74 8.42,99.81 -1.71,53.59 -18.42,88.1 -39.86,109.18 -21.44,21.08 -47.62,28.73 -68.27,28.63"
             style="fill:#395e9d;fill-opacity:1;fill-rule:nonzero;stroke:none"
             id="path60" /><path
             d="m 1683.18,1426.49 c -2.37,1.37 -4.86,2.58 -7.39,3.69 -2.54,1.1 -5.12,2.1 -7.7,3.05 -3.43,0.76 -6.96,1.48 -10.6,1.97 -3.63,0.5 -7.36,0.78 -11.17,0.67 -20.58,-0.18 -46.72,-8.11 -68.02,-29.36 -21.31,-21.26 -37.76,-55.84 -38.95,-109.32 -0.85,-33.92 2.44,-67 9.1,-99.5 6.65,-32.49 16.67,-64.42 29.27,-96.03 26.72,21.3 51.18,44.15 73,69.19 21.82,25.03 41.01,52.24 57.2,82.23 25.32,47.27 28.1,85.5 20.07,114.48 -8.04,28.97 -26.88,48.69 -44.81,58.93"
             style="fill:#395e9d;fill-opacity:1;fill-rule:nonzero;stroke:none"
             id="path62" /><path
             d="m 1521.04,1509.28 c -1.37,2.38 -2.92,4.66 -4.56,6.89 -1.64,2.23 -3.38,4.38 -5.14,6.5 -2.59,2.37 -5.29,4.75 -8.19,7 -2.9,2.24 -5.98,4.36 -9.34,6.17 -17.92,10.13 -44.52,16.33 -73.59,8.58 -29.07,-7.76 -60.61,-29.48 -88.39,-75.2 -17.7,-28.95 -31.39,-59.24 -41.88,-90.71 -10.48,-31.47 -17.76,-64.13 -22.65,-97.82 33.78,5.09 66.39,12.66 97.8,23.43 31.42,10.76 61.65,24.73 90.65,42.61 45.56,28.27 67.1,60 74.63,89.11 7.53,29.1 1.07,55.6 -9.34,73.44"
             style="fill:#395e9d;fill-opacity:1;fill-rule:nonzero;stroke:none"
             id="path64" /><path
             d="m 1422.72,1662.3 c 0,2.75 -0.19,5.51 -0.49,8.26 -0.32,2.74 -0.75,5.48 -1.21,8.18 -1.05,3.36 -2.21,6.78 -3.59,10.17 -1.39,3.39 -3,6.76 -5.01,10.02 -10.44,17.73 -30.39,36.4 -59.43,44.22 -29.06,7.82 -67.23,4.78 -114.16,-20.92 -29.8,-16.24 -56.8,-35.62 -81.61,-57.63 -24.82,-22.02 -47.46,-46.66 -68.53,-73.38 31.8,-12.49 63.83,-22.24 96.41,-28.62 32.6,-6.38 65.75,-9.4 99.82,-8.42 53.59,1.71 88.09,18.41 109.17,39.86 21.08,21.44 28.74,47.62 28.63,68.26"
             style="fill:#395e9d;fill-opacity:1;fill-rule:nonzero;stroke:none"
             id="path66" /><path
             d="m 1992.26,1509.18 c 1.36,2.38 2.91,4.66 4.56,6.9 1.65,2.22 3.38,4.38 5.14,6.49 2.59,2.38 5.29,4.76 8.19,7 2.89,2.25 5.98,4.36 9.35,6.17 17.91,10.14 44.52,16.34 73.58,8.59 29.07,-7.77 60.61,-29.49 88.4,-75.21 17.69,-28.95 31.38,-59.24 41.87,-90.71 10.49,-31.47 17.77,-64.12 22.65,-97.82 -33.79,5.09 -66.39,12.66 -97.81,23.43 -31.41,10.77 -61.63,24.74 -90.65,42.62 -45.56,28.26 -67.08,59.99 -74.61,89.1 -7.54,29.11 -1.07,55.61 9.33,73.44"
             style="fill:#395e9d;fill-opacity:1;fill-rule:nonzero;stroke:none"
             id="path68" /><path
             d="m 2091.29,1661.95 c 0,2.74 0.19,5.5 0.49,8.25 0.32,2.74 0.75,5.49 1.22,8.19 1.04,3.35 2.19,6.78 3.58,10.17 1.39,3.38 3.01,6.76 5.01,10.01 10.45,17.73 30.39,36.41 59.44,44.23 29.06,7.81 67.22,4.77 114.15,-20.93 29.8,-16.23 56.81,-35.62 81.62,-57.63 24.81,-22.02 47.45,-46.65 68.53,-73.38 -31.81,-12.48 -63.84,-22.24 -96.42,-28.62 -32.6,-6.38 -65.75,-9.39 -99.82,-8.42 -53.59,1.71 -88.09,18.42 -109.17,39.87 -21.07,21.43 -28.74,47.61 -28.63,68.26"
             style="fill:#395e9d;fill-opacity:1;fill-rule:nonzero;stroke:none"
             id="path70" /><path
             d="m 2348.16,1466.97 c -3.63,-3.62 -7.02,-7.52 -10.24,-11.57 -3.22,-4.04 -6.28,-8.23 -9.24,-12.43 -3.05,-5.83 -6.05,-11.87 -8.71,-18.18 -2.65,-6.33 -4.96,-12.93 -6.62,-19.87 -9.62,-37.27 -7.96,-88.34 20.12,-137.1 28.1,-48.76 82.6,-95.22 178.64,-123.29 60.88,-17.94 122.23,-28.01 184.17,-31.73 61.92,-3.71 124.44,-1.06 187.66,6.42 -25.54,58.57 -55,113.81 -89.66,165.36 -34.66,51.54 -74.53,99.38 -120.87,143.14 -73.13,68.62 -140.86,92.15 -197.1,91.66 -56.23,-0.48 -100.97,-24.98 -128.15,-52.41"
             style="fill:#81b19f;fill-opacity:1;fill-rule:nonzero;stroke:none"
             id="path72" /><path
             d="m 2120.48,1214.39 c -4.96,-1.31 -9.84,-3 -14.65,-4.89 -4.81,-1.89 -9.55,-3.99 -14.22,-6.15 -5.56,-3.52 -11.17,-7.25 -16.63,-11.4 -5.45,-4.14 -10.75,-8.7 -15.67,-13.89 -26.98,-27.46 -51.06,-72.53 -51.12,-128.79 -0.05,-56.282 23.92,-123.758 93.06,-196.09 43.75,-45.989 91.85,-85.379 143.62,-119.559 51.78,-34.18 107.25,-63.141 165.74,-88.269 7.16,63.48 9.26,126.07 5.02,188.027 -4.25,61.961 -14.85,123.332 -33.1,184.391 -29.03,96 -75.92,150.24 -124.86,177.94 -48.94,27.7 -99.93,28.85 -137.19,18.68"
             style="fill:#81b19f;fill-opacity:1;fill-rule:nonzero;stroke:none"
             id="path74" /><path
             d="m 1796.56,1109.45 c -4.96,1.34 -10.03,2.32 -15.14,3.08 -5.12,0.78 -10.28,1.33 -15.39,1.79 -6.57,-0.26 -13.3,-0.69 -20.11,-1.56 -6.79,-0.85 -13.66,-2.15 -20.5,-4.19 -37.11,-10.3 -80.49,-37.27 -108.68,-85.98 -28.19,-48.699 -41.16,-119.141 -17.45,-216.34 14.9,-61.699 36.85,-119.871 64.61,-175.359 27.75,-55.493 61.3,-108.309 99.39,-159.321 37.94,51.41 71.06,104.551 98.37,160.34 27.3,55.781 48.8,114.219 63.53,176.238 22.86,97.653 9.37,168.063 -19.16,216.532 -28.54,48.45 -72.13,74.96 -109.47,84.77"
             style="fill:#81b19f;fill-opacity:1;fill-rule:nonzero;stroke:none"
             id="path76" /><path
             d="m 1464.16,1181.81 c -3.63,3.63 -7.53,7.03 -11.58,10.25 -4.04,3.21 -8.23,6.28 -12.43,9.24 -5.82,3.05 -11.86,6.04 -18.19,8.7 -6.32,2.66 -12.92,4.96 -19.86,6.62 -37.27,9.63 -88.35,7.97 -137.11,-20.12 -48.75,-28.1 -95.21,-82.6 -123.28,-178.63 -17.95,-60.89 -28.01,-122.241 -31.73,-184.171 -3.71,-61.929 -1.06,-124.449 6.42,-187.668 58.57,25.547 113.81,55.008 165.36,89.668 51.54,34.66 99.38,74.52 143.13,120.871 68.63,73.129 92.16,140.852 91.68,197.09 -0.49,56.24 -24.98,100.98 -52.41,128.15"
             style="fill:#81b19f;fill-opacity:1;fill-rule:nonzero;stroke:none"
             id="path78" /><path
             d="m 1211.93,1409.22 c -1.31,4.96 -3,9.84 -4.89,14.66 -1.89,4.81 -4,9.55 -6.14,14.22 -3.54,5.55 -7.26,11.16 -11.41,16.62 -4.14,5.46 -8.7,10.75 -13.9,15.67 -27.46,26.98 -72.52,51.06 -128.78,51.12 -56.279,0.06 -123.763,-23.92 -196.095,-93.06 -45.985,-43.75 -85.375,-91.85 -119.555,-143.62 -34.183,-51.78 -63.144,-107.25 -88.273,-165.74 63.484,-7.15 126.058,-9.26 188.031,-5.01 61.965,4.24 123.328,14.84 184.392,33.1 96,29.02 150.24,75.91 177.94,124.85 27.7,48.94 28.85,99.94 18.68,137.19"
             style="fill:#81b19f;fill-opacity:1;fill-rule:nonzero;stroke:none"
             id="path80" /><path
             d="m 2936.9,1142.33 c -55.62,130.39 -126.58,234.98 -216.33,320.04 -40.97,39.17 -80.98,64.99 -119.23,81.36 41.39,-4.89 89.21,-2.66 144.65,10.63 121.63,28.44 235.39,81.49 351.48,166.02 0.98,0.3 4.15,2.14 5.12,2.45 l 5.49,1.64 c 2.22,0.05 4.82,-0.31 7.53,-1.39 1.2,-0.49 2.45,-1.2 3.78,-2.27 96.6,-78.4 123.85,-117.42 199.82,-189.43 0,0 108.49,-119.65 184.88,-209.02 7.47,-8.74 7.23,-17.46 6.08,-22.32 -1.29,-4.51 -4.61,-11.55 -16.15,-15.53 -52.33,-18.05 -174.29,-60.1 -268.89,-87.81 -107.32,-31.47 -152.03,-41.81 -268.91,-62.59 -6.15,-1.09 -8.9,-0.7 -12.61,1.26 -3.33,1.74 -5.17,3.36 -6.71,6.96"
             style="fill:#dae2a7;fill-opacity:1;fill-rule:nonzero;stroke:none"
             id="path82" /><path
             d="m 2895.28,1061.44 c -142.66,-16.5 -270.06,-7.17 -389.43,27.91 -54.8,15.83 -97.32,37.41 -130.62,62.14 24.69,-33.08 46.26,-75.15 61.79,-129.21 34.73,-118.241 43.81,-241.85 26.21,-382.96 0.21,-0.98 0.13,-4.609 0.35,-5.59 l 1.25,-5.511 c 1.05,-1.93 2.65,-3.989 4.94,-5.77 1.02,-0.789 2.26,-1.5 3.87,-2.109 116.85,-44.219 164.76,-48.371 265.81,-78.051 0,0 159.19,-34.09 275.81,-55.57 11.4,-2.098 18.98,2.402 22.73,5.75 3.34,3.34 7.94,9.652 5.78,21.511 -9.8,53.731 -32.65,178.95 -54.7,273.668 -25.01,107.461 -37.87,150.883 -77.02,261.272 -2.06,5.81 -3.76,7.97 -7.31,10.2 -3.18,1.99 -5.53,2.77 -9.46,2.32"
             style="fill:#dae2a7;fill-opacity:1;fill-rule:nonzero;stroke:none"
             id="path84" /><path
             d="m 1797.16,435.02 c 86.77,113.57 143.37,227.21 173.54,347.062 14.08,54.887 16.94,102.199 12.38,143.207 16.18,-37.891 41.75,-77.699 80.79,-118.43 85.03,-89.73 187.72,-160.257 319.17,-216.859 0.73,-0.691 3.92,-2.469 4.66,-3.168 1.39,-1.281 2.77,-2.562 4.16,-3.852 1.14,-1.878 2.11,-4.289 2.5,-7.16 0.17,-1.269 0.16,-2.699 -0.13,-4.379 -20.96,-122.339 -41.69,-165.41 -67.24,-266.859 -0.01,0 -51.24,-153.383 -91.81,-263.9804 -3.96,-10.8125 -11.72,-15.0196 -16.54,-16.5 -4.59,-1.1797 -12.4,-1.9024 -21.6,5.9687 -41.67,35.668 -138.78,118.7887 -209.82,185.7387 -80.59,75.941 -111.75,108.98 -187.71,198.511 -4,4.711 -5,7.258 -5.13,11.442 -0.12,3.718 0.4,6.117 2.78,9.258"
             style="fill:#dae2a7;fill-opacity:1;fill-rule:nonzero;stroke:none"
             id="path86" /><path
             d="m 572.191,1141.18 c 56.957,130.59 128.993,235.44 219.614,320.8 41.383,39.31 81.652,65.29 120.066,81.78 -41.437,-5.02 -89.23,-2.97 -144.527,10.14 -121.348,28.01 -234.543,80.67 -349.778,164.81 -0.964,0.3 -4.121,2.13 -5.097,2.43 -1.824,0.54 -3.641,1.08 -5.469,1.63 -2.223,0.03 -4.82,-0.32 -7.539,-1.43 -1.211,-0.49 -2.465,-1.2 -3.801,-2.28 -97.41,-78.73 -125.062,-117.85 -201.762,-190.12 0,0 -109.7261,-120.04 -187.03472,-209.69 -7.55078,-8.76 -7.406249,-17.48 -6.316405,-22.33 1.246095,-4.51 4.500005,-11.53 16.000025,-15.48 52.1406,-17.86 173.6721,-59.49 267.9731,-86.89 106.992,-31.08 151.609,-41.28 268.261,-61.65 6.145,-1.08 8.891,-0.67 12.625,1.29 3.348,1.76 5.199,3.39 6.785,6.99"
             style="fill:#dae2a7;fill-opacity:1;fill-rule:nonzero;stroke:none"
             id="path88" /><path
             d="m 618.707,1058.85 c 142.543,-15.54 270.004,-5.36 389.613,30.52 54.91,16.2 97.59,38.08 131.05,63.03 -24.91,-33.25 -46.77,-75.47 -62.67,-129.63 -35.52,-118.489 -45.45,-242.149 -28.81,-383.141 -0.22,-0.988 -0.17,-4.609 -0.41,-5.598 -0.41,-1.84 -0.84,-3.679 -1.27,-5.519 -1.07,-1.942 -2.67,-4.012 -4.98,-5.801 -1.03,-0.801 -2.27,-1.531 -3.88,-2.141 -117.159,-45.011 -165.096,-49.48 -266.354,-79.832 0,0 -159.426,-35.168 -276.191,-57.429 -11.414,-2.18 -18.977,2.261 -22.684,5.601 -3.328,3.309 -7.883,9.59 -5.641,21.461 10.168,53.801 33.875,179.188 56.559,274.051 25.746,107.629 38.895,151.137 78.801,261.798 2.094,5.82 3.82,7.99 7.387,10.24 3.191,2.01 5.543,2.81 9.48,2.39"
             style="fill:#dae2a7;fill-opacity:1;fill-rule:nonzero;stroke:none"
             id="path90" /><path
             d="m 1713.43,437.332 c -86,112.977 -141.82,226.238 -171.18,345.887 -13.7,54.801 -16.24,102.082 -11.4,143.14 -16.44,-38.007 -42.28,-77.988 -81.61,-118.98 -85.63,-90.297 -188.8,-161.527 -320.64,-219.02 -0.75,-0.699 -3.95,-2.488 -4.7,-3.187 -1.39,-1.301 -2.78,-2.59 -4.17,-3.891 -1.16,-1.89 -2.15,-4.293 -2.55,-7.172 -0.17,-1.269 -0.18,-2.687 0.09,-4.371 20.12,-122.207 40.57,-165.136 65.43,-266.418 0,0 50.2,-153.05 90.02,-263.3708 3.89,-10.789 11.62,-14.9375 16.42,-16.3984 4.58,-1.1406 12.4,-1.8086 21.64,6.1211 41.92,35.9492 139.6,119.7261 211.1,187.1481 81.09,76.5 112.49,109.75 189.06,199.789 4.03,4.743 5.05,7.289 5.21,11.473 0.15,3.719 -0.36,6.117 -2.72,9.25"
             style="fill:#dae2a7;fill-opacity:1;fill-rule:nonzero;stroke:none"
             id="path92" /></g></g></g></g></svg>
